G04 EAGLE Gerber RS-274X export*
G75*
%MOMM*%
%FSLAX34Y34*%
%LPD*%
%IN*%
%IPPOS*%
%AMOC8*
5,1,8,0,0,1.08239X$1,22.5*%
G01*
%ADD10C,0.254000*%


D10*
X12700Y25400D02*
X492000Y25400D01*
X492000Y406300D01*
X12700Y406300D01*
X12700Y25400D01*
X68500Y355319D02*
X68437Y354761D01*
X68312Y354214D01*
X68127Y353684D01*
X67883Y353178D01*
X67584Y352702D01*
X67234Y352263D01*
X66837Y351866D01*
X66398Y351516D01*
X65922Y351217D01*
X65416Y350973D01*
X64886Y350788D01*
X64339Y350663D01*
X63781Y350600D01*
X63219Y350600D01*
X62661Y350663D01*
X62114Y350788D01*
X61584Y350973D01*
X61078Y351217D01*
X60602Y351516D01*
X60163Y351866D01*
X59766Y352263D01*
X59416Y352702D01*
X59117Y353178D01*
X58873Y353684D01*
X58688Y354214D01*
X58563Y354761D01*
X58500Y355319D01*
X58500Y355881D01*
X58563Y356439D01*
X58688Y356986D01*
X58873Y357516D01*
X59117Y358022D01*
X59416Y358498D01*
X59766Y358937D01*
X60163Y359334D01*
X60602Y359684D01*
X61078Y359983D01*
X61584Y360227D01*
X62114Y360412D01*
X62661Y360537D01*
X63219Y360600D01*
X63781Y360600D01*
X64339Y360537D01*
X64886Y360412D01*
X65416Y360227D01*
X65922Y359983D01*
X66398Y359684D01*
X66837Y359334D01*
X67234Y358937D01*
X67584Y358498D01*
X67883Y358022D01*
X68127Y357516D01*
X68312Y356986D01*
X68437Y356439D01*
X68500Y355881D01*
X68500Y355319D01*
X81200Y88619D02*
X81137Y88061D01*
X81012Y87514D01*
X80827Y86984D01*
X80583Y86478D01*
X80284Y86002D01*
X79934Y85563D01*
X79537Y85166D01*
X79098Y84816D01*
X78622Y84517D01*
X78116Y84273D01*
X77586Y84088D01*
X77039Y83963D01*
X76481Y83900D01*
X75919Y83900D01*
X75361Y83963D01*
X74814Y84088D01*
X74284Y84273D01*
X73778Y84517D01*
X73302Y84816D01*
X72863Y85166D01*
X72466Y85563D01*
X72116Y86002D01*
X71817Y86478D01*
X71573Y86984D01*
X71388Y87514D01*
X71263Y88061D01*
X71200Y88619D01*
X71200Y89181D01*
X71263Y89739D01*
X71388Y90286D01*
X71573Y90816D01*
X71817Y91322D01*
X72116Y91798D01*
X72466Y92237D01*
X72863Y92634D01*
X73302Y92984D01*
X73778Y93283D01*
X74284Y93527D01*
X74814Y93712D01*
X75361Y93837D01*
X75919Y93900D01*
X76481Y93900D01*
X77039Y93837D01*
X77586Y93712D01*
X78116Y93527D01*
X78622Y93283D01*
X79098Y92984D01*
X79537Y92634D01*
X79934Y92237D01*
X80284Y91798D01*
X80583Y91322D01*
X80827Y90816D01*
X81012Y90286D01*
X81137Y89739D01*
X81200Y89181D01*
X81200Y88619D01*
X436800Y75919D02*
X436737Y75361D01*
X436612Y74814D01*
X436427Y74284D01*
X436183Y73778D01*
X435884Y73302D01*
X435534Y72863D01*
X435137Y72466D01*
X434698Y72116D01*
X434222Y71817D01*
X433716Y71573D01*
X433186Y71388D01*
X432639Y71263D01*
X432081Y71200D01*
X431519Y71200D01*
X430961Y71263D01*
X430414Y71388D01*
X429884Y71573D01*
X429378Y71817D01*
X428902Y72116D01*
X428463Y72466D01*
X428066Y72863D01*
X427716Y73302D01*
X427417Y73778D01*
X427173Y74284D01*
X426988Y74814D01*
X426863Y75361D01*
X426800Y75919D01*
X426800Y76481D01*
X426863Y77039D01*
X426988Y77586D01*
X427173Y78116D01*
X427417Y78622D01*
X427716Y79098D01*
X428066Y79537D01*
X428463Y79934D01*
X428902Y80284D01*
X429378Y80583D01*
X429884Y80827D01*
X430414Y81012D01*
X430961Y81137D01*
X431519Y81200D01*
X432081Y81200D01*
X432639Y81137D01*
X433186Y81012D01*
X433716Y80827D01*
X434222Y80583D01*
X434698Y80284D01*
X435137Y79934D01*
X435534Y79537D01*
X435884Y79098D01*
X436183Y78622D01*
X436427Y78116D01*
X436612Y77586D01*
X436737Y77039D01*
X436800Y76481D01*
X436800Y75919D01*
X436800Y355319D02*
X436737Y354761D01*
X436612Y354214D01*
X436427Y353684D01*
X436183Y353178D01*
X435884Y352702D01*
X435534Y352263D01*
X435137Y351866D01*
X434698Y351516D01*
X434222Y351217D01*
X433716Y350973D01*
X433186Y350788D01*
X432639Y350663D01*
X432081Y350600D01*
X431519Y350600D01*
X430961Y350663D01*
X430414Y350788D01*
X429884Y350973D01*
X429378Y351217D01*
X428902Y351516D01*
X428463Y351866D01*
X428066Y352263D01*
X427716Y352702D01*
X427417Y353178D01*
X427173Y353684D01*
X426988Y354214D01*
X426863Y354761D01*
X426800Y355319D01*
X426800Y355881D01*
X426863Y356439D01*
X426988Y356986D01*
X427173Y357516D01*
X427417Y358022D01*
X427716Y358498D01*
X428066Y358937D01*
X428463Y359334D01*
X428902Y359684D01*
X429378Y359983D01*
X429884Y360227D01*
X430414Y360412D01*
X430961Y360537D01*
X431519Y360600D01*
X432081Y360600D01*
X432639Y360537D01*
X433186Y360412D01*
X433716Y360227D01*
X434222Y359983D01*
X434698Y359684D01*
X435137Y359334D01*
X435534Y358937D01*
X435884Y358498D01*
X436183Y358022D01*
X436427Y357516D01*
X436612Y356986D01*
X436737Y356439D01*
X436800Y355881D01*
X436800Y355319D01*
M02*
