G04 EAGLE Gerber RS-274X export*
G75*
%MOMM*%
%FSLAX34Y34*%
%LPD*%
%INSilkscreen Bottom*%
%IPPOS*%
%AMOC8*
5,1,8,0,0,1.08239X$1,22.5*%
G01*
%ADD10C,0.101600*%


D10*
X400699Y191008D02*
X403296Y191008D01*
X403395Y191010D01*
X403495Y191016D01*
X403594Y191025D01*
X403692Y191038D01*
X403790Y191055D01*
X403888Y191076D01*
X403984Y191101D01*
X404079Y191129D01*
X404173Y191161D01*
X404266Y191196D01*
X404358Y191235D01*
X404448Y191278D01*
X404536Y191323D01*
X404623Y191373D01*
X404707Y191425D01*
X404790Y191481D01*
X404870Y191539D01*
X404948Y191601D01*
X405023Y191666D01*
X405096Y191734D01*
X405166Y191804D01*
X405234Y191877D01*
X405299Y191952D01*
X405361Y192030D01*
X405419Y192110D01*
X405475Y192193D01*
X405527Y192277D01*
X405577Y192364D01*
X405622Y192452D01*
X405665Y192542D01*
X405704Y192634D01*
X405739Y192727D01*
X405771Y192821D01*
X405799Y192916D01*
X405824Y193012D01*
X405845Y193110D01*
X405862Y193208D01*
X405875Y193306D01*
X405884Y193405D01*
X405890Y193505D01*
X405892Y193604D01*
X405892Y200096D01*
X405890Y200195D01*
X405884Y200295D01*
X405875Y200394D01*
X405862Y200492D01*
X405845Y200590D01*
X405824Y200688D01*
X405799Y200784D01*
X405771Y200879D01*
X405739Y200973D01*
X405704Y201066D01*
X405665Y201158D01*
X405622Y201248D01*
X405577Y201336D01*
X405527Y201423D01*
X405475Y201507D01*
X405419Y201590D01*
X405361Y201670D01*
X405299Y201748D01*
X405234Y201823D01*
X405166Y201896D01*
X405096Y201966D01*
X405023Y202034D01*
X404948Y202099D01*
X404870Y202161D01*
X404790Y202219D01*
X404707Y202275D01*
X404623Y202327D01*
X404536Y202377D01*
X404448Y202422D01*
X404358Y202465D01*
X404266Y202504D01*
X404173Y202539D01*
X404079Y202571D01*
X403984Y202599D01*
X403888Y202624D01*
X403790Y202645D01*
X403692Y202662D01*
X403594Y202675D01*
X403495Y202684D01*
X403395Y202690D01*
X403296Y202692D01*
X400699Y202692D01*
X396334Y200096D02*
X393088Y202692D01*
X393088Y191008D01*
X389843Y191008D02*
X396334Y191008D01*
X348742Y108458D02*
X337058Y108458D01*
X348742Y108458D02*
X348742Y111704D01*
X348740Y111817D01*
X348734Y111930D01*
X348724Y112043D01*
X348710Y112156D01*
X348693Y112268D01*
X348671Y112379D01*
X348646Y112489D01*
X348616Y112599D01*
X348583Y112707D01*
X348546Y112814D01*
X348506Y112920D01*
X348461Y113024D01*
X348413Y113127D01*
X348362Y113228D01*
X348307Y113327D01*
X348249Y113424D01*
X348187Y113519D01*
X348122Y113612D01*
X348054Y113702D01*
X347983Y113790D01*
X347908Y113876D01*
X347831Y113959D01*
X347751Y114039D01*
X347668Y114116D01*
X347582Y114191D01*
X347494Y114262D01*
X347404Y114330D01*
X347311Y114395D01*
X347216Y114457D01*
X347119Y114515D01*
X347020Y114570D01*
X346919Y114621D01*
X346816Y114669D01*
X346712Y114714D01*
X346606Y114754D01*
X346499Y114791D01*
X346391Y114824D01*
X346281Y114854D01*
X346171Y114879D01*
X346060Y114901D01*
X345948Y114918D01*
X345835Y114932D01*
X345722Y114942D01*
X345609Y114948D01*
X345496Y114950D01*
X345383Y114948D01*
X345270Y114942D01*
X345157Y114932D01*
X345044Y114918D01*
X344932Y114901D01*
X344821Y114879D01*
X344711Y114854D01*
X344601Y114824D01*
X344493Y114791D01*
X344386Y114754D01*
X344280Y114714D01*
X344176Y114669D01*
X344073Y114621D01*
X343972Y114570D01*
X343873Y114515D01*
X343776Y114457D01*
X343681Y114395D01*
X343588Y114330D01*
X343498Y114262D01*
X343410Y114191D01*
X343324Y114116D01*
X343241Y114039D01*
X343161Y113959D01*
X343084Y113876D01*
X343009Y113790D01*
X342938Y113702D01*
X342870Y113612D01*
X342805Y113519D01*
X342743Y113424D01*
X342685Y113327D01*
X342630Y113228D01*
X342579Y113127D01*
X342531Y113024D01*
X342486Y112920D01*
X342446Y112814D01*
X342409Y112707D01*
X342376Y112599D01*
X342346Y112489D01*
X342321Y112379D01*
X342299Y112268D01*
X342282Y112156D01*
X342268Y112043D01*
X342258Y111930D01*
X342252Y111817D01*
X342250Y111704D01*
X342251Y111704D02*
X342251Y108458D01*
X342251Y112353D02*
X337058Y114949D01*
X345821Y126305D02*
X345928Y126303D01*
X346034Y126297D01*
X346140Y126287D01*
X346246Y126274D01*
X346352Y126256D01*
X346456Y126235D01*
X346560Y126210D01*
X346663Y126181D01*
X346764Y126149D01*
X346864Y126112D01*
X346963Y126072D01*
X347061Y126029D01*
X347157Y125982D01*
X347251Y125931D01*
X347343Y125877D01*
X347433Y125820D01*
X347521Y125760D01*
X347606Y125696D01*
X347689Y125629D01*
X347770Y125559D01*
X347848Y125487D01*
X347924Y125411D01*
X347996Y125333D01*
X348066Y125252D01*
X348133Y125169D01*
X348197Y125084D01*
X348257Y124996D01*
X348314Y124906D01*
X348368Y124814D01*
X348419Y124720D01*
X348466Y124624D01*
X348509Y124526D01*
X348549Y124427D01*
X348586Y124327D01*
X348618Y124226D01*
X348647Y124123D01*
X348672Y124019D01*
X348693Y123915D01*
X348711Y123809D01*
X348724Y123703D01*
X348734Y123597D01*
X348740Y123491D01*
X348742Y123384D01*
X348740Y123263D01*
X348734Y123142D01*
X348724Y123022D01*
X348711Y122901D01*
X348693Y122782D01*
X348672Y122662D01*
X348647Y122544D01*
X348618Y122427D01*
X348585Y122310D01*
X348549Y122195D01*
X348508Y122081D01*
X348465Y121968D01*
X348417Y121856D01*
X348366Y121747D01*
X348311Y121639D01*
X348253Y121532D01*
X348192Y121428D01*
X348127Y121326D01*
X348059Y121226D01*
X347988Y121128D01*
X347914Y121032D01*
X347837Y120939D01*
X347756Y120849D01*
X347673Y120761D01*
X347587Y120676D01*
X347498Y120593D01*
X347407Y120514D01*
X347313Y120437D01*
X347217Y120364D01*
X347119Y120294D01*
X347018Y120227D01*
X346915Y120163D01*
X346810Y120103D01*
X346703Y120046D01*
X346595Y119992D01*
X346485Y119942D01*
X346373Y119896D01*
X346260Y119853D01*
X346145Y119814D01*
X343549Y125332D02*
X343626Y125411D01*
X343707Y125487D01*
X343790Y125560D01*
X343875Y125630D01*
X343963Y125697D01*
X344053Y125761D01*
X344145Y125821D01*
X344240Y125878D01*
X344336Y125932D01*
X344434Y125983D01*
X344534Y126030D01*
X344636Y126074D01*
X344739Y126114D01*
X344843Y126150D01*
X344949Y126182D01*
X345055Y126211D01*
X345163Y126236D01*
X345271Y126258D01*
X345381Y126275D01*
X345490Y126289D01*
X345600Y126298D01*
X345711Y126304D01*
X345821Y126306D01*
X343549Y125332D02*
X337058Y119814D01*
X337058Y126305D01*
X196342Y216595D02*
X184658Y216595D01*
X196342Y216595D02*
X196342Y219840D01*
X196340Y219953D01*
X196334Y220066D01*
X196324Y220179D01*
X196310Y220292D01*
X196293Y220404D01*
X196271Y220515D01*
X196246Y220625D01*
X196216Y220735D01*
X196183Y220843D01*
X196146Y220950D01*
X196106Y221056D01*
X196061Y221160D01*
X196013Y221263D01*
X195962Y221364D01*
X195907Y221463D01*
X195849Y221560D01*
X195787Y221655D01*
X195722Y221748D01*
X195654Y221838D01*
X195583Y221926D01*
X195508Y222012D01*
X195431Y222095D01*
X195351Y222175D01*
X195268Y222252D01*
X195182Y222327D01*
X195094Y222398D01*
X195004Y222466D01*
X194911Y222531D01*
X194816Y222593D01*
X194719Y222651D01*
X194620Y222706D01*
X194519Y222757D01*
X194416Y222805D01*
X194312Y222850D01*
X194206Y222890D01*
X194099Y222927D01*
X193991Y222960D01*
X193881Y222990D01*
X193771Y223015D01*
X193660Y223037D01*
X193548Y223054D01*
X193435Y223068D01*
X193322Y223078D01*
X193209Y223084D01*
X193096Y223086D01*
X192983Y223084D01*
X192870Y223078D01*
X192757Y223068D01*
X192644Y223054D01*
X192532Y223037D01*
X192421Y223015D01*
X192311Y222990D01*
X192201Y222960D01*
X192093Y222927D01*
X191986Y222890D01*
X191880Y222850D01*
X191776Y222805D01*
X191673Y222757D01*
X191572Y222706D01*
X191473Y222651D01*
X191376Y222593D01*
X191281Y222531D01*
X191188Y222466D01*
X191098Y222398D01*
X191010Y222327D01*
X190924Y222252D01*
X190841Y222175D01*
X190761Y222095D01*
X190684Y222012D01*
X190609Y221926D01*
X190538Y221838D01*
X190470Y221748D01*
X190405Y221655D01*
X190343Y221560D01*
X190285Y221463D01*
X190230Y221364D01*
X190179Y221263D01*
X190131Y221160D01*
X190086Y221056D01*
X190046Y220950D01*
X190009Y220843D01*
X189976Y220735D01*
X189946Y220625D01*
X189921Y220515D01*
X189899Y220404D01*
X189882Y220292D01*
X189868Y220179D01*
X189858Y220066D01*
X189852Y219953D01*
X189850Y219840D01*
X189851Y219840D02*
X189851Y216595D01*
X189851Y220489D02*
X184658Y223086D01*
X184658Y227951D02*
X184658Y231196D01*
X184660Y231309D01*
X184666Y231422D01*
X184676Y231535D01*
X184690Y231648D01*
X184707Y231760D01*
X184729Y231871D01*
X184754Y231981D01*
X184784Y232091D01*
X184817Y232199D01*
X184854Y232306D01*
X184894Y232412D01*
X184939Y232516D01*
X184987Y232619D01*
X185038Y232720D01*
X185093Y232819D01*
X185151Y232916D01*
X185213Y233011D01*
X185278Y233104D01*
X185346Y233194D01*
X185417Y233282D01*
X185492Y233368D01*
X185569Y233451D01*
X185649Y233531D01*
X185732Y233608D01*
X185818Y233683D01*
X185906Y233754D01*
X185996Y233822D01*
X186089Y233887D01*
X186184Y233949D01*
X186281Y234007D01*
X186380Y234062D01*
X186481Y234113D01*
X186584Y234161D01*
X186688Y234206D01*
X186794Y234246D01*
X186901Y234283D01*
X187009Y234316D01*
X187119Y234346D01*
X187229Y234371D01*
X187340Y234393D01*
X187452Y234410D01*
X187565Y234424D01*
X187678Y234434D01*
X187791Y234440D01*
X187904Y234442D01*
X188017Y234440D01*
X188130Y234434D01*
X188243Y234424D01*
X188356Y234410D01*
X188468Y234393D01*
X188579Y234371D01*
X188689Y234346D01*
X188799Y234316D01*
X188907Y234283D01*
X189014Y234246D01*
X189120Y234206D01*
X189224Y234161D01*
X189327Y234113D01*
X189428Y234062D01*
X189527Y234007D01*
X189624Y233949D01*
X189719Y233887D01*
X189812Y233822D01*
X189902Y233754D01*
X189990Y233683D01*
X190076Y233608D01*
X190159Y233531D01*
X190239Y233451D01*
X190316Y233368D01*
X190391Y233282D01*
X190462Y233194D01*
X190530Y233104D01*
X190595Y233011D01*
X190657Y232916D01*
X190715Y232819D01*
X190770Y232720D01*
X190821Y232619D01*
X190869Y232516D01*
X190914Y232412D01*
X190954Y232306D01*
X190991Y232199D01*
X191024Y232091D01*
X191054Y231981D01*
X191079Y231871D01*
X191101Y231760D01*
X191118Y231648D01*
X191132Y231535D01*
X191142Y231422D01*
X191148Y231309D01*
X191150Y231196D01*
X196342Y231846D02*
X196342Y227951D01*
X196342Y231846D02*
X196340Y231947D01*
X196334Y232047D01*
X196324Y232147D01*
X196311Y232247D01*
X196293Y232346D01*
X196272Y232445D01*
X196247Y232542D01*
X196218Y232639D01*
X196185Y232734D01*
X196149Y232828D01*
X196109Y232920D01*
X196066Y233011D01*
X196019Y233100D01*
X195969Y233187D01*
X195915Y233273D01*
X195858Y233356D01*
X195798Y233436D01*
X195735Y233515D01*
X195668Y233591D01*
X195599Y233664D01*
X195527Y233734D01*
X195453Y233802D01*
X195376Y233867D01*
X195296Y233928D01*
X195214Y233987D01*
X195130Y234042D01*
X195044Y234094D01*
X194956Y234143D01*
X194866Y234188D01*
X194774Y234230D01*
X194681Y234268D01*
X194586Y234302D01*
X194491Y234333D01*
X194394Y234360D01*
X194296Y234383D01*
X194197Y234403D01*
X194097Y234418D01*
X193997Y234430D01*
X193897Y234438D01*
X193796Y234442D01*
X193696Y234442D01*
X193595Y234438D01*
X193495Y234430D01*
X193395Y234418D01*
X193295Y234403D01*
X193196Y234383D01*
X193098Y234360D01*
X193001Y234333D01*
X192906Y234302D01*
X192811Y234268D01*
X192718Y234230D01*
X192626Y234188D01*
X192536Y234143D01*
X192448Y234094D01*
X192362Y234042D01*
X192278Y233987D01*
X192196Y233928D01*
X192116Y233867D01*
X192039Y233802D01*
X191965Y233734D01*
X191893Y233664D01*
X191824Y233591D01*
X191757Y233515D01*
X191694Y233436D01*
X191634Y233356D01*
X191577Y233273D01*
X191523Y233187D01*
X191473Y233100D01*
X191426Y233011D01*
X191383Y232920D01*
X191343Y232828D01*
X191307Y232734D01*
X191274Y232639D01*
X191245Y232542D01*
X191220Y232445D01*
X191199Y232346D01*
X191181Y232247D01*
X191168Y232147D01*
X191158Y232047D01*
X191152Y231947D01*
X191150Y231846D01*
X191149Y231846D02*
X191149Y229249D01*
M02*
