G04 EAGLE Gerber RS-274X export*
G75*
%MOMM*%
%FSLAX34Y34*%
%LPD*%
%INTop Copper*%
%IPPOS*%
%AMOC8*
5,1,8,0,0,1.08239X$1,22.5*%
G01*
%ADD10R,1.600000X1.800000*%
%ADD11P,3.409096X8X202.500000*%
%ADD12C,1.320800*%
%ADD13P,1.429621X8X292.500000*%
%ADD14R,1.000000X1.100000*%
%ADD15C,0.152400*%

G36*
X469920Y37342D02*
X469920Y37342D01*
X469939Y37340D01*
X470041Y37362D01*
X470143Y37379D01*
X470160Y37388D01*
X470180Y37392D01*
X470269Y37445D01*
X470360Y37494D01*
X470374Y37508D01*
X470391Y37518D01*
X470458Y37597D01*
X470530Y37672D01*
X470538Y37690D01*
X470551Y37705D01*
X470590Y37801D01*
X470633Y37895D01*
X470635Y37915D01*
X470643Y37933D01*
X470661Y38100D01*
X470661Y393700D01*
X470658Y393720D01*
X470660Y393739D01*
X470638Y393841D01*
X470622Y393943D01*
X470612Y393960D01*
X470608Y393980D01*
X470555Y394069D01*
X470506Y394160D01*
X470492Y394174D01*
X470482Y394191D01*
X470403Y394258D01*
X470328Y394330D01*
X470310Y394338D01*
X470295Y394351D01*
X470199Y394390D01*
X470105Y394433D01*
X470085Y394435D01*
X470067Y394443D01*
X469900Y394461D01*
X25400Y394461D01*
X25380Y394458D01*
X25361Y394460D01*
X25259Y394438D01*
X25157Y394422D01*
X25140Y394412D01*
X25120Y394408D01*
X25031Y394355D01*
X24940Y394306D01*
X24926Y394292D01*
X24909Y394282D01*
X24842Y394203D01*
X24771Y394128D01*
X24762Y394110D01*
X24749Y394095D01*
X24710Y393999D01*
X24667Y393905D01*
X24665Y393885D01*
X24657Y393867D01*
X24639Y393700D01*
X24639Y38100D01*
X24642Y38080D01*
X24640Y38061D01*
X24662Y37959D01*
X24679Y37857D01*
X24688Y37840D01*
X24692Y37820D01*
X24745Y37731D01*
X24794Y37640D01*
X24808Y37626D01*
X24818Y37609D01*
X24897Y37542D01*
X24972Y37471D01*
X24990Y37462D01*
X25005Y37449D01*
X25101Y37410D01*
X25195Y37367D01*
X25215Y37365D01*
X25233Y37357D01*
X25400Y37339D01*
X469900Y37339D01*
X469920Y37342D01*
G37*
%LPC*%
G36*
X316068Y119975D02*
X316068Y119975D01*
X315175Y120868D01*
X315175Y124968D01*
X315172Y124988D01*
X315174Y125007D01*
X315152Y125109D01*
X315136Y125211D01*
X315126Y125228D01*
X315122Y125248D01*
X315069Y125337D01*
X315020Y125428D01*
X315006Y125442D01*
X314996Y125459D01*
X314917Y125526D01*
X314842Y125598D01*
X314824Y125606D01*
X314809Y125619D01*
X314713Y125658D01*
X314619Y125701D01*
X314599Y125703D01*
X314581Y125711D01*
X314414Y125729D01*
X302329Y125729D01*
X257935Y170123D01*
X257841Y170190D01*
X257747Y170261D01*
X257740Y170263D01*
X257735Y170266D01*
X257625Y170301D01*
X257513Y170337D01*
X257506Y170337D01*
X257500Y170339D01*
X257384Y170336D01*
X257267Y170335D01*
X257259Y170333D01*
X257255Y170332D01*
X257237Y170326D01*
X257106Y170288D01*
X255617Y169671D01*
X252383Y169671D01*
X250535Y170437D01*
X250422Y170463D01*
X250308Y170492D01*
X250302Y170491D01*
X250296Y170493D01*
X250179Y170482D01*
X250063Y170473D01*
X250057Y170470D01*
X250051Y170470D01*
X249943Y170422D01*
X249837Y170376D01*
X249831Y170372D01*
X249826Y170370D01*
X249812Y170357D01*
X249706Y170272D01*
X229547Y150113D01*
X212090Y150113D01*
X212070Y150110D01*
X212051Y150112D01*
X211949Y150090D01*
X211847Y150074D01*
X211830Y150064D01*
X211810Y150060D01*
X211721Y150007D01*
X211630Y149958D01*
X211616Y149944D01*
X211599Y149934D01*
X211532Y149855D01*
X211460Y149780D01*
X211452Y149762D01*
X211439Y149747D01*
X211400Y149651D01*
X211357Y149557D01*
X211355Y149537D01*
X211347Y149519D01*
X211329Y149352D01*
X211329Y149033D01*
X206567Y144271D01*
X199833Y144271D01*
X195071Y149033D01*
X195071Y155769D01*
X195126Y155854D01*
X195186Y155938D01*
X195192Y155957D01*
X195203Y155974D01*
X195228Y156074D01*
X195259Y156173D01*
X195258Y156193D01*
X195263Y156213D01*
X195255Y156316D01*
X195252Y156419D01*
X195246Y156438D01*
X195244Y156458D01*
X195204Y156553D01*
X195168Y156650D01*
X195156Y156666D01*
X195148Y156684D01*
X195043Y156815D01*
X163868Y187990D01*
X163794Y188043D01*
X163724Y188103D01*
X163694Y188115D01*
X163668Y188134D01*
X163581Y188161D01*
X163496Y188195D01*
X163455Y188199D01*
X163433Y188206D01*
X163401Y188205D01*
X163329Y188213D01*
X157734Y188213D01*
X157714Y188210D01*
X157695Y188212D01*
X157593Y188190D01*
X157491Y188174D01*
X157474Y188164D01*
X157454Y188160D01*
X157365Y188107D01*
X157274Y188058D01*
X157260Y188044D01*
X157243Y188034D01*
X157176Y187955D01*
X157104Y187880D01*
X157096Y187862D01*
X157083Y187847D01*
X157044Y187751D01*
X157001Y187657D01*
X156999Y187637D01*
X156991Y187619D01*
X156973Y187452D01*
X156973Y183345D01*
X146855Y173227D01*
X132545Y173227D01*
X122427Y183345D01*
X122427Y197655D01*
X132545Y207773D01*
X146855Y207773D01*
X156973Y197655D01*
X156973Y193548D01*
X156976Y193528D01*
X156974Y193509D01*
X156996Y193407D01*
X157012Y193305D01*
X157022Y193288D01*
X157026Y193268D01*
X157079Y193179D01*
X157128Y193088D01*
X157142Y193074D01*
X157152Y193057D01*
X157231Y192990D01*
X157306Y192918D01*
X157324Y192910D01*
X157339Y192897D01*
X157435Y192858D01*
X157529Y192815D01*
X157549Y192813D01*
X157567Y192805D01*
X157734Y192787D01*
X165539Y192787D01*
X198277Y160049D01*
X198293Y160037D01*
X198305Y160022D01*
X198393Y159966D01*
X198477Y159906D01*
X198496Y159900D01*
X198512Y159889D01*
X198613Y159864D01*
X198712Y159833D01*
X198732Y159834D01*
X198751Y159829D01*
X198854Y159837D01*
X198957Y159840D01*
X198976Y159846D01*
X198996Y159848D01*
X199091Y159888D01*
X199189Y159924D01*
X199204Y159937D01*
X199222Y159944D01*
X199353Y160049D01*
X199833Y160529D01*
X206567Y160529D01*
X211329Y155767D01*
X211329Y155448D01*
X211332Y155428D01*
X211330Y155409D01*
X211352Y155307D01*
X211368Y155205D01*
X211378Y155188D01*
X211382Y155168D01*
X211435Y155079D01*
X211484Y154988D01*
X211498Y154974D01*
X211508Y154957D01*
X211587Y154890D01*
X211662Y154818D01*
X211680Y154810D01*
X211695Y154797D01*
X211791Y154758D01*
X211885Y154715D01*
X211905Y154713D01*
X211923Y154705D01*
X212090Y154687D01*
X227337Y154687D01*
X227428Y154701D01*
X227518Y154709D01*
X227548Y154721D01*
X227580Y154726D01*
X227661Y154769D01*
X227745Y154805D01*
X227777Y154831D01*
X227798Y154842D01*
X227820Y154865D01*
X227876Y154910D01*
X246472Y173506D01*
X246539Y173600D01*
X246610Y173694D01*
X246612Y173700D01*
X246615Y173705D01*
X246649Y173816D01*
X246686Y173928D01*
X246686Y173934D01*
X246688Y173940D01*
X246685Y174057D01*
X246683Y174174D01*
X246681Y174181D01*
X246681Y174186D01*
X246675Y174204D01*
X246637Y174335D01*
X245871Y176183D01*
X245871Y179417D01*
X247109Y182405D01*
X249395Y184691D01*
X252383Y185929D01*
X255617Y185929D01*
X257465Y185163D01*
X257578Y185137D01*
X257692Y185108D01*
X257698Y185109D01*
X257704Y185107D01*
X257821Y185118D01*
X257937Y185127D01*
X257943Y185130D01*
X257949Y185130D01*
X258057Y185178D01*
X258163Y185224D01*
X258169Y185228D01*
X258174Y185230D01*
X258188Y185243D01*
X258294Y185328D01*
X322672Y249706D01*
X322739Y249800D01*
X322810Y249894D01*
X322812Y249900D01*
X322815Y249905D01*
X322849Y250016D01*
X322886Y250128D01*
X322886Y250134D01*
X322888Y250140D01*
X322885Y250257D01*
X322883Y250374D01*
X322881Y250381D01*
X322881Y250386D01*
X322875Y250404D01*
X322837Y250535D01*
X322071Y252383D01*
X322071Y255617D01*
X323309Y258605D01*
X325595Y260891D01*
X328583Y262129D01*
X331817Y262129D01*
X334805Y260891D01*
X337091Y258605D01*
X338329Y255617D01*
X338329Y252383D01*
X337091Y249395D01*
X334805Y247109D01*
X331817Y245871D01*
X328583Y245871D01*
X326735Y246637D01*
X326669Y246652D01*
X326640Y246664D01*
X326602Y246668D01*
X326508Y246692D01*
X326502Y246691D01*
X326496Y246693D01*
X326379Y246682D01*
X326263Y246673D01*
X326257Y246670D01*
X326251Y246670D01*
X326191Y246643D01*
X326189Y246643D01*
X326183Y246639D01*
X326143Y246622D01*
X326037Y246576D01*
X326031Y246572D01*
X326026Y246570D01*
X326012Y246557D01*
X325983Y246534D01*
X325972Y246528D01*
X325959Y246514D01*
X325906Y246472D01*
X261528Y182094D01*
X261461Y182000D01*
X261390Y181906D01*
X261388Y181900D01*
X261385Y181895D01*
X261351Y181784D01*
X261314Y181672D01*
X261314Y181666D01*
X261312Y181660D01*
X261315Y181543D01*
X261317Y181426D01*
X261319Y181419D01*
X261319Y181414D01*
X261325Y181396D01*
X261363Y181265D01*
X262129Y179417D01*
X262129Y176183D01*
X261215Y173976D01*
X261188Y173862D01*
X261159Y173749D01*
X261160Y173743D01*
X261158Y173737D01*
X261169Y173620D01*
X261178Y173504D01*
X261181Y173498D01*
X261181Y173492D01*
X261229Y173384D01*
X261275Y173277D01*
X261279Y173272D01*
X261281Y173267D01*
X261294Y173253D01*
X261380Y173146D01*
X304000Y130526D01*
X304074Y130473D01*
X304144Y130413D01*
X304174Y130401D01*
X304200Y130382D01*
X304287Y130355D01*
X304372Y130321D01*
X304413Y130317D01*
X304435Y130310D01*
X304467Y130311D01*
X304539Y130303D01*
X314414Y130303D01*
X314434Y130306D01*
X314453Y130304D01*
X314555Y130326D01*
X314657Y130342D01*
X314674Y130352D01*
X314694Y130356D01*
X314783Y130409D01*
X314874Y130458D01*
X314888Y130472D01*
X314905Y130482D01*
X314972Y130561D01*
X315044Y130636D01*
X315052Y130654D01*
X315065Y130669D01*
X315104Y130765D01*
X315147Y130859D01*
X315149Y130879D01*
X315157Y130897D01*
X315175Y131064D01*
X315175Y133132D01*
X316068Y134025D01*
X327332Y134025D01*
X328225Y133132D01*
X328225Y120868D01*
X327332Y119975D01*
X316068Y119975D01*
G37*
%LPD*%
%LPC*%
G36*
X333068Y119975D02*
X333068Y119975D01*
X332175Y120868D01*
X332175Y133132D01*
X333068Y134025D01*
X336804Y134025D01*
X336824Y134028D01*
X336843Y134026D01*
X336945Y134048D01*
X337047Y134064D01*
X337064Y134074D01*
X337084Y134078D01*
X337173Y134131D01*
X337264Y134180D01*
X337278Y134194D01*
X337295Y134204D01*
X337362Y134283D01*
X337434Y134358D01*
X337442Y134376D01*
X337455Y134391D01*
X337494Y134487D01*
X337537Y134581D01*
X337539Y134601D01*
X337547Y134619D01*
X337565Y134786D01*
X337565Y171832D01*
X337554Y171902D01*
X337552Y171974D01*
X337534Y172023D01*
X337526Y172074D01*
X337492Y172138D01*
X337467Y172205D01*
X337435Y172246D01*
X337410Y172292D01*
X337358Y172341D01*
X337314Y172397D01*
X337270Y172425D01*
X337232Y172461D01*
X337167Y172491D01*
X337107Y172530D01*
X337056Y172543D01*
X337009Y172565D01*
X336938Y172573D01*
X336868Y172590D01*
X336816Y172586D01*
X336765Y172592D01*
X336694Y172577D01*
X336623Y172571D01*
X336575Y172551D01*
X336524Y172540D01*
X336463Y172503D01*
X336397Y172475D01*
X336341Y172430D01*
X336313Y172413D01*
X336298Y172396D01*
X336266Y172370D01*
X334805Y170909D01*
X331817Y169671D01*
X328583Y169671D01*
X325595Y170909D01*
X323309Y173195D01*
X322071Y176183D01*
X322071Y179417D01*
X323309Y182405D01*
X325595Y184691D01*
X328583Y185929D01*
X331817Y185929D01*
X334805Y184691D01*
X336266Y183230D01*
X336324Y183188D01*
X336376Y183139D01*
X336423Y183117D01*
X336465Y183086D01*
X336534Y183065D01*
X336599Y183035D01*
X336651Y183029D01*
X336701Y183014D01*
X336772Y183016D01*
X336843Y183008D01*
X336894Y183019D01*
X336946Y183020D01*
X337014Y183045D01*
X337084Y183060D01*
X337129Y183087D01*
X337177Y183105D01*
X337233Y183150D01*
X337295Y183187D01*
X337329Y183226D01*
X337369Y183259D01*
X337408Y183319D01*
X337455Y183373D01*
X337474Y183422D01*
X337502Y183466D01*
X337520Y183535D01*
X337547Y183602D01*
X337555Y183673D01*
X337563Y183704D01*
X337561Y183727D01*
X337565Y183768D01*
X337565Y197232D01*
X337564Y197239D01*
X337564Y197241D01*
X337562Y197249D01*
X337554Y197302D01*
X337552Y197374D01*
X337534Y197423D01*
X337526Y197474D01*
X337492Y197538D01*
X337467Y197605D01*
X337435Y197646D01*
X337410Y197692D01*
X337358Y197741D01*
X337314Y197797D01*
X337270Y197825D01*
X337232Y197861D01*
X337167Y197891D01*
X337107Y197930D01*
X337056Y197943D01*
X337009Y197965D01*
X336938Y197973D01*
X336868Y197990D01*
X336816Y197986D01*
X336765Y197992D01*
X336694Y197977D01*
X336623Y197971D01*
X336575Y197951D01*
X336524Y197940D01*
X336463Y197903D01*
X336397Y197875D01*
X336341Y197830D01*
X336313Y197813D01*
X336298Y197796D01*
X336266Y197770D01*
X334805Y196309D01*
X331817Y195071D01*
X328583Y195071D01*
X325595Y196309D01*
X323309Y198595D01*
X322071Y201583D01*
X322071Y204817D01*
X322837Y206665D01*
X322863Y206778D01*
X322892Y206892D01*
X322891Y206898D01*
X322893Y206904D01*
X322882Y207021D01*
X322873Y207137D01*
X322870Y207143D01*
X322870Y207149D01*
X322822Y207257D01*
X322776Y207363D01*
X322772Y207369D01*
X322770Y207374D01*
X322757Y207388D01*
X322672Y207494D01*
X317753Y212413D01*
X317753Y232595D01*
X325189Y240031D01*
X334703Y240031D01*
X381763Y192971D01*
X381763Y189086D01*
X381766Y189066D01*
X381764Y189047D01*
X381786Y188945D01*
X381802Y188843D01*
X381812Y188826D01*
X381816Y188806D01*
X381869Y188717D01*
X381918Y188626D01*
X381932Y188612D01*
X381942Y188595D01*
X382021Y188528D01*
X382096Y188456D01*
X382114Y188448D01*
X382129Y188435D01*
X382225Y188396D01*
X382319Y188353D01*
X382339Y188351D01*
X382357Y188343D01*
X382524Y188325D01*
X388332Y188325D01*
X389225Y187432D01*
X389225Y168168D01*
X388332Y167275D01*
X371068Y167275D01*
X370175Y168168D01*
X370175Y187432D01*
X371068Y188325D01*
X376428Y188325D01*
X376448Y188328D01*
X376467Y188326D01*
X376569Y188348D01*
X376671Y188364D01*
X376688Y188374D01*
X376708Y188378D01*
X376797Y188431D01*
X376888Y188480D01*
X376902Y188494D01*
X376919Y188504D01*
X376986Y188583D01*
X377058Y188658D01*
X377066Y188676D01*
X377079Y188691D01*
X377118Y188787D01*
X377161Y188881D01*
X377163Y188901D01*
X377171Y188919D01*
X377189Y189086D01*
X377189Y190761D01*
X377175Y190852D01*
X377167Y190942D01*
X377155Y190972D01*
X377150Y191004D01*
X377107Y191085D01*
X377071Y191169D01*
X377045Y191201D01*
X377034Y191222D01*
X377011Y191244D01*
X376966Y191300D01*
X339628Y228638D01*
X339570Y228680D01*
X339518Y228729D01*
X339471Y228751D01*
X339429Y228781D01*
X339360Y228802D01*
X339295Y228833D01*
X339243Y228838D01*
X339193Y228854D01*
X339122Y228852D01*
X339051Y228860D01*
X339000Y228849D01*
X338948Y228847D01*
X338880Y228823D01*
X338810Y228808D01*
X338765Y228781D01*
X338717Y228763D01*
X338661Y228718D01*
X338599Y228681D01*
X338565Y228642D01*
X338525Y228609D01*
X338486Y228549D01*
X338439Y228494D01*
X338420Y228446D01*
X338392Y228402D01*
X338374Y228333D01*
X338347Y228266D01*
X338339Y228195D01*
X338331Y228164D01*
X338333Y228140D01*
X338329Y228100D01*
X338329Y226983D01*
X337712Y225494D01*
X337685Y225381D01*
X337657Y225267D01*
X337657Y225261D01*
X337656Y225255D01*
X337667Y225138D01*
X337676Y225022D01*
X337678Y225016D01*
X337679Y225010D01*
X337727Y224901D01*
X337772Y224796D01*
X337777Y224790D01*
X337779Y224785D01*
X337792Y224772D01*
X337877Y224665D01*
X342139Y220403D01*
X342139Y134786D01*
X342142Y134766D01*
X342140Y134747D01*
X342162Y134645D01*
X342178Y134543D01*
X342188Y134526D01*
X342192Y134506D01*
X342245Y134417D01*
X342294Y134326D01*
X342308Y134312D01*
X342318Y134295D01*
X342397Y134228D01*
X342472Y134156D01*
X342490Y134148D01*
X342505Y134135D01*
X342601Y134096D01*
X342695Y134053D01*
X342715Y134051D01*
X342733Y134043D01*
X342900Y134025D01*
X344332Y134025D01*
X345225Y133132D01*
X345225Y120868D01*
X344332Y119975D01*
X333068Y119975D01*
G37*
%LPD*%
%LPC*%
G36*
X189068Y221575D02*
X189068Y221575D01*
X188175Y222468D01*
X188175Y234732D01*
X189068Y235625D01*
X190500Y235625D01*
X190520Y235628D01*
X190539Y235626D01*
X190641Y235648D01*
X190743Y235664D01*
X190760Y235674D01*
X190780Y235678D01*
X190869Y235731D01*
X190960Y235780D01*
X190974Y235794D01*
X190991Y235804D01*
X191058Y235883D01*
X191130Y235958D01*
X191138Y235976D01*
X191151Y235991D01*
X191190Y236087D01*
X191233Y236181D01*
X191235Y236201D01*
X191243Y236219D01*
X191261Y236386D01*
X191261Y262389D01*
X191247Y262480D01*
X191239Y262570D01*
X191227Y262600D01*
X191222Y262632D01*
X191179Y262713D01*
X191143Y262797D01*
X191117Y262829D01*
X191106Y262850D01*
X191083Y262872D01*
X191038Y262928D01*
X179069Y274897D01*
X179069Y296603D01*
X182597Y300131D01*
X182609Y300147D01*
X182624Y300159D01*
X182680Y300247D01*
X182740Y300331D01*
X182746Y300350D01*
X182757Y300366D01*
X182782Y300467D01*
X182813Y300566D01*
X182812Y300586D01*
X182817Y300605D01*
X182809Y300708D01*
X182806Y300811D01*
X182800Y300830D01*
X182798Y300850D01*
X182758Y300945D01*
X182722Y301043D01*
X182709Y301058D01*
X182702Y301076D01*
X182597Y301207D01*
X182371Y301433D01*
X182371Y308167D01*
X187133Y312929D01*
X193867Y312929D01*
X198629Y308167D01*
X198629Y301433D01*
X193867Y296671D01*
X187133Y296671D01*
X186907Y296897D01*
X186891Y296909D01*
X186879Y296924D01*
X186792Y296980D01*
X186708Y297040D01*
X186689Y297046D01*
X186672Y297057D01*
X186571Y297082D01*
X186473Y297113D01*
X186453Y297112D01*
X186433Y297117D01*
X186330Y297109D01*
X186227Y297106D01*
X186208Y297100D01*
X186188Y297098D01*
X186093Y297058D01*
X185996Y297022D01*
X185980Y297010D01*
X185962Y297002D01*
X185831Y296897D01*
X183866Y294932D01*
X183813Y294858D01*
X183753Y294788D01*
X183741Y294758D01*
X183722Y294732D01*
X183695Y294645D01*
X183661Y294560D01*
X183657Y294519D01*
X183650Y294497D01*
X183651Y294465D01*
X183643Y294393D01*
X183643Y287313D01*
X183654Y287242D01*
X183656Y287171D01*
X183674Y287122D01*
X183682Y287070D01*
X183716Y287007D01*
X183741Y286940D01*
X183773Y286899D01*
X183798Y286853D01*
X183850Y286804D01*
X183894Y286748D01*
X183938Y286719D01*
X183976Y286684D01*
X184041Y286653D01*
X184101Y286615D01*
X184152Y286602D01*
X184199Y286580D01*
X184270Y286572D01*
X184340Y286555D01*
X184392Y286559D01*
X184443Y286553D01*
X184514Y286568D01*
X184585Y286574D01*
X184633Y286594D01*
X184684Y286605D01*
X184745Y286642D01*
X184811Y286670D01*
X184867Y286715D01*
X184895Y286731D01*
X184910Y286749D01*
X184942Y286775D01*
X186712Y288545D01*
X188977Y288545D01*
X188977Y280162D01*
X188979Y280149D01*
X188978Y280138D01*
X188979Y280133D01*
X188978Y280123D01*
X189000Y280021D01*
X189017Y279919D01*
X189026Y279902D01*
X189030Y279882D01*
X189083Y279793D01*
X189132Y279702D01*
X189146Y279688D01*
X189156Y279671D01*
X189235Y279604D01*
X189310Y279533D01*
X189328Y279524D01*
X189343Y279511D01*
X189439Y279473D01*
X189533Y279429D01*
X189553Y279427D01*
X189571Y279419D01*
X189738Y279401D01*
X190501Y279401D01*
X190501Y278638D01*
X190503Y278625D01*
X190502Y278616D01*
X190503Y278610D01*
X190502Y278599D01*
X190524Y278497D01*
X190541Y278395D01*
X190550Y278378D01*
X190554Y278358D01*
X190607Y278269D01*
X190656Y278178D01*
X190670Y278164D01*
X190680Y278147D01*
X190759Y278080D01*
X190834Y278009D01*
X190852Y278000D01*
X190867Y277987D01*
X190963Y277948D01*
X191057Y277905D01*
X191077Y277903D01*
X191095Y277895D01*
X191262Y277877D01*
X199645Y277877D01*
X199645Y275612D01*
X194288Y270255D01*
X192016Y270255D01*
X191946Y270244D01*
X191874Y270242D01*
X191825Y270224D01*
X191774Y270216D01*
X191710Y270182D01*
X191643Y270157D01*
X191602Y270125D01*
X191556Y270100D01*
X191507Y270048D01*
X191451Y270004D01*
X191423Y269960D01*
X191387Y269922D01*
X191357Y269857D01*
X191318Y269797D01*
X191305Y269746D01*
X191283Y269699D01*
X191275Y269628D01*
X191258Y269558D01*
X191262Y269506D01*
X191256Y269455D01*
X191271Y269384D01*
X191277Y269313D01*
X191297Y269265D01*
X191308Y269214D01*
X191345Y269153D01*
X191373Y269087D01*
X191418Y269031D01*
X191435Y269003D01*
X191452Y268988D01*
X191478Y268956D01*
X195835Y264599D01*
X195835Y236386D01*
X195838Y236366D01*
X195836Y236347D01*
X195858Y236245D01*
X195874Y236143D01*
X195884Y236126D01*
X195888Y236106D01*
X195941Y236017D01*
X195990Y235926D01*
X196004Y235912D01*
X196014Y235895D01*
X196093Y235828D01*
X196168Y235756D01*
X196186Y235748D01*
X196201Y235735D01*
X196297Y235696D01*
X196391Y235653D01*
X196411Y235651D01*
X196429Y235643D01*
X196596Y235625D01*
X200332Y235625D01*
X201225Y234732D01*
X201225Y222468D01*
X200332Y221575D01*
X189068Y221575D01*
G37*
%LPD*%
%LPC*%
G36*
X428784Y340439D02*
X428784Y340439D01*
X423212Y342747D01*
X418947Y347012D01*
X416639Y352584D01*
X416639Y358616D01*
X418947Y364188D01*
X423212Y368453D01*
X428784Y370761D01*
X434816Y370761D01*
X440388Y368453D01*
X444653Y364188D01*
X446961Y358616D01*
X446961Y352584D01*
X444653Y347012D01*
X440388Y342747D01*
X434816Y340439D01*
X428784Y340439D01*
G37*
%LPD*%
%LPC*%
G36*
X60484Y340439D02*
X60484Y340439D01*
X54912Y342747D01*
X50647Y347012D01*
X48339Y352584D01*
X48339Y358616D01*
X50647Y364188D01*
X54912Y368453D01*
X60484Y370761D01*
X66516Y370761D01*
X72088Y368453D01*
X76353Y364188D01*
X78661Y358616D01*
X78661Y352584D01*
X76353Y347012D01*
X72088Y342747D01*
X66516Y340439D01*
X60484Y340439D01*
G37*
%LPD*%
%LPC*%
G36*
X73184Y73739D02*
X73184Y73739D01*
X67612Y76047D01*
X63347Y80312D01*
X61039Y85884D01*
X61039Y91916D01*
X63347Y97488D01*
X67612Y101753D01*
X73184Y104061D01*
X79216Y104061D01*
X84788Y101753D01*
X89053Y97488D01*
X91361Y91916D01*
X91361Y85884D01*
X89053Y80312D01*
X84788Y76047D01*
X79216Y73739D01*
X73184Y73739D01*
G37*
%LPD*%
%LPC*%
G36*
X428784Y61039D02*
X428784Y61039D01*
X423212Y63347D01*
X418947Y67612D01*
X416639Y73184D01*
X416639Y79216D01*
X418947Y84788D01*
X423212Y89053D01*
X428784Y91361D01*
X434816Y91361D01*
X440388Y89053D01*
X444653Y84788D01*
X446961Y79216D01*
X446961Y73184D01*
X444653Y67612D01*
X440388Y63347D01*
X434816Y61039D01*
X428784Y61039D01*
G37*
%LPD*%
%LPC*%
G36*
X252383Y195071D02*
X252383Y195071D01*
X249395Y196309D01*
X247109Y198595D01*
X245871Y201583D01*
X245871Y204817D01*
X246637Y206665D01*
X246663Y206778D01*
X246692Y206892D01*
X246691Y206898D01*
X246693Y206904D01*
X246682Y207021D01*
X246673Y207137D01*
X246670Y207143D01*
X246670Y207149D01*
X246622Y207257D01*
X246576Y207363D01*
X246572Y207369D01*
X246570Y207374D01*
X246557Y207388D01*
X246472Y207494D01*
X227876Y226090D01*
X227802Y226143D01*
X227732Y226203D01*
X227702Y226215D01*
X227676Y226234D01*
X227589Y226261D01*
X227504Y226295D01*
X227463Y226299D01*
X227441Y226306D01*
X227409Y226305D01*
X227337Y226313D01*
X218986Y226313D01*
X218966Y226310D01*
X218947Y226312D01*
X218845Y226290D01*
X218743Y226274D01*
X218726Y226264D01*
X218706Y226260D01*
X218617Y226207D01*
X218526Y226158D01*
X218512Y226144D01*
X218495Y226134D01*
X218428Y226055D01*
X218356Y225980D01*
X218348Y225962D01*
X218335Y225947D01*
X218296Y225851D01*
X218253Y225757D01*
X218251Y225737D01*
X218243Y225719D01*
X218225Y225552D01*
X218225Y222468D01*
X217332Y221575D01*
X206068Y221575D01*
X205175Y222468D01*
X205175Y234732D01*
X206068Y235625D01*
X217332Y235625D01*
X218225Y234732D01*
X218225Y231648D01*
X218228Y231628D01*
X218226Y231609D01*
X218248Y231507D01*
X218264Y231405D01*
X218274Y231388D01*
X218278Y231368D01*
X218331Y231279D01*
X218380Y231188D01*
X218394Y231174D01*
X218404Y231157D01*
X218483Y231090D01*
X218558Y231018D01*
X218576Y231010D01*
X218591Y230997D01*
X218687Y230958D01*
X218781Y230915D01*
X218801Y230913D01*
X218819Y230905D01*
X218986Y230887D01*
X229547Y230887D01*
X249706Y210728D01*
X249800Y210661D01*
X249894Y210590D01*
X249900Y210588D01*
X249905Y210585D01*
X250016Y210551D01*
X250128Y210514D01*
X250134Y210514D01*
X250140Y210512D01*
X250257Y210515D01*
X250374Y210517D01*
X250381Y210519D01*
X250386Y210519D01*
X250404Y210525D01*
X250535Y210563D01*
X252383Y211329D01*
X255617Y211329D01*
X258605Y210091D01*
X260891Y207805D01*
X262129Y204817D01*
X262129Y201583D01*
X260891Y198595D01*
X258605Y196309D01*
X255617Y195071D01*
X252383Y195071D01*
G37*
%LPD*%
%LPC*%
G36*
X141223Y242823D02*
X141223Y242823D01*
X141223Y259589D01*
X147275Y259589D01*
X157989Y248875D01*
X157989Y242823D01*
X141223Y242823D01*
G37*
%LPD*%
%LPC*%
G36*
X121411Y242823D02*
X121411Y242823D01*
X121411Y248875D01*
X132125Y259589D01*
X138177Y259589D01*
X138177Y242823D01*
X121411Y242823D01*
G37*
%LPD*%
%LPC*%
G36*
X141223Y223011D02*
X141223Y223011D01*
X141223Y239777D01*
X157989Y239777D01*
X157989Y233725D01*
X147275Y223011D01*
X141223Y223011D01*
G37*
%LPD*%
%LPC*%
G36*
X132125Y223011D02*
X132125Y223011D01*
X121411Y233725D01*
X121411Y239777D01*
X138177Y239777D01*
X138177Y223011D01*
X132125Y223011D01*
G37*
%LPD*%
%LPC*%
G36*
X199833Y118871D02*
X199833Y118871D01*
X195071Y123633D01*
X195071Y130367D01*
X199833Y135129D01*
X206567Y135129D01*
X211329Y130367D01*
X211329Y123633D01*
X206567Y118871D01*
X199833Y118871D01*
G37*
%LPD*%
%LPC*%
G36*
X252383Y220471D02*
X252383Y220471D01*
X249395Y221709D01*
X247109Y223995D01*
X245871Y226983D01*
X245871Y230217D01*
X247109Y233205D01*
X249395Y235491D01*
X252383Y236729D01*
X255617Y236729D01*
X258605Y235491D01*
X260891Y233205D01*
X262129Y230217D01*
X262129Y226983D01*
X260891Y223995D01*
X258605Y221709D01*
X255617Y220471D01*
X252383Y220471D01*
G37*
%LPD*%
%LPC*%
G36*
X409223Y179323D02*
X409223Y179323D01*
X409223Y189341D01*
X416034Y189341D01*
X416681Y189168D01*
X417260Y188833D01*
X417733Y188360D01*
X418068Y187781D01*
X418241Y187134D01*
X418241Y179323D01*
X409223Y179323D01*
G37*
%LPD*%
%LPC*%
G36*
X397159Y179323D02*
X397159Y179323D01*
X397159Y187134D01*
X397332Y187781D01*
X397667Y188360D01*
X398140Y188833D01*
X398719Y189168D01*
X399366Y189341D01*
X406177Y189341D01*
X406177Y179323D01*
X397159Y179323D01*
G37*
%LPD*%
%LPC*%
G36*
X409223Y166259D02*
X409223Y166259D01*
X409223Y176277D01*
X418241Y176277D01*
X418241Y168466D01*
X418068Y167819D01*
X417733Y167240D01*
X417260Y166767D01*
X416681Y166432D01*
X416034Y166259D01*
X409223Y166259D01*
G37*
%LPD*%
%LPC*%
G36*
X399366Y166259D02*
X399366Y166259D01*
X398719Y166432D01*
X398140Y166767D01*
X397667Y167240D01*
X397332Y167819D01*
X397159Y168466D01*
X397159Y176277D01*
X406177Y176277D01*
X406177Y166259D01*
X399366Y166259D01*
G37*
%LPD*%
%LPC*%
G36*
X192023Y280923D02*
X192023Y280923D01*
X192023Y288545D01*
X194288Y288545D01*
X199645Y283188D01*
X199645Y280923D01*
X192023Y280923D01*
G37*
%LPD*%
%LPC*%
G36*
X255523Y255523D02*
X255523Y255523D01*
X255523Y263021D01*
X256667Y262793D01*
X258332Y262104D01*
X259830Y261103D01*
X261103Y259830D01*
X262104Y258332D01*
X262793Y256667D01*
X263021Y255523D01*
X255523Y255523D01*
G37*
%LPD*%
%LPC*%
G36*
X244979Y255523D02*
X244979Y255523D01*
X245207Y256667D01*
X245896Y258332D01*
X246897Y259830D01*
X248170Y261103D01*
X249668Y262104D01*
X251333Y262793D01*
X252477Y263021D01*
X252477Y255523D01*
X244979Y255523D01*
G37*
%LPD*%
%LPC*%
G36*
X255523Y252477D02*
X255523Y252477D01*
X263021Y252477D01*
X262793Y251333D01*
X262104Y249668D01*
X261103Y248170D01*
X259830Y246897D01*
X258332Y245896D01*
X256667Y245207D01*
X255523Y244979D01*
X255523Y252477D01*
G37*
%LPD*%
%LPC*%
G36*
X251333Y245207D02*
X251333Y245207D01*
X249668Y245896D01*
X248170Y246897D01*
X246897Y248170D01*
X245896Y249668D01*
X245207Y251333D01*
X244979Y252477D01*
X252477Y252477D01*
X252477Y244979D01*
X251333Y245207D01*
G37*
%LPD*%
%LPC*%
G36*
X253999Y253999D02*
X253999Y253999D01*
X253999Y254001D01*
X254001Y254001D01*
X254001Y253999D01*
X253999Y253999D01*
G37*
%LPD*%
%LPC*%
G36*
X139699Y241299D02*
X139699Y241299D01*
X139699Y241301D01*
X139701Y241301D01*
X139701Y241299D01*
X139699Y241299D01*
G37*
%LPD*%
%LPC*%
G36*
X407699Y177799D02*
X407699Y177799D01*
X407699Y177801D01*
X407701Y177801D01*
X407701Y177799D01*
X407699Y177799D01*
G37*
%LPD*%
D10*
X379700Y177800D03*
X407700Y177800D03*
D11*
X139700Y241300D03*
X139700Y190500D03*
D12*
X254000Y254000D03*
X254000Y228600D03*
X330200Y228600D03*
X330200Y254000D03*
X254000Y203200D03*
X254000Y177800D03*
X330200Y203200D03*
X330200Y177800D03*
D13*
X203200Y152400D03*
X203200Y127000D03*
X190500Y304800D03*
X190500Y279400D03*
D14*
X338700Y127000D03*
X321700Y127000D03*
X194700Y228600D03*
X211700Y228600D03*
D15*
X339852Y219456D02*
X339852Y128016D01*
X339852Y219456D02*
X330708Y228600D01*
X339852Y128016D02*
X338700Y127000D01*
X330708Y228600D02*
X330200Y228600D01*
X379476Y192024D02*
X379476Y178308D01*
X379476Y192024D02*
X333756Y237744D01*
X326136Y237744D01*
X320040Y231648D01*
X320040Y213360D01*
X330200Y203200D01*
X379476Y178308D02*
X379700Y177800D01*
X228600Y228600D02*
X211700Y228600D01*
X228600Y228600D02*
X254000Y203200D01*
X193548Y228600D02*
X193548Y263652D01*
X181356Y275844D01*
X181356Y295656D01*
X190500Y304800D01*
X193548Y228600D02*
X194700Y228600D01*
X303276Y128016D02*
X321564Y128016D01*
X303276Y128016D02*
X254508Y176784D01*
X321564Y128016D02*
X321700Y127000D01*
X254508Y176784D02*
X254000Y177800D01*
X228600Y152400D02*
X203200Y152400D01*
X228600Y152400D02*
X254000Y177800D01*
X330200Y254000D01*
X164592Y190500D02*
X139700Y190500D01*
X164592Y190500D02*
X202692Y152400D01*
X203200Y152400D01*
X406908Y178308D02*
X406908Y190500D01*
X333756Y263652D01*
X263652Y263652D01*
X254000Y254000D01*
X406908Y178308D02*
X407700Y177800D01*
X228600Y278892D02*
X190500Y278892D01*
X228600Y278892D02*
X252984Y254508D01*
X190500Y278892D02*
X190500Y279400D01*
X252984Y254508D02*
X254000Y254000D01*
M02*
