G04 EAGLE Gerber RS-274X export*
G75*
%MOMM*%
%FSLAX34Y34*%
%LPD*%
%INBottom Copper*%
%IPPOS*%
%AMOC8*
5,1,8,0,0,1.08239X$1,22.5*%
G01*
%ADD10R,1.600000X1.800000*%
%ADD11P,3.409096X8X202.500000*%
%ADD12C,1.320800*%
%ADD13P,1.429621X8X292.500000*%
%ADD14R,1.100000X1.000000*%
%ADD15C,0.152400*%

G36*
X457220Y50042D02*
X457220Y50042D01*
X457239Y50040D01*
X457341Y50062D01*
X457443Y50079D01*
X457460Y50088D01*
X457480Y50092D01*
X457569Y50145D01*
X457660Y50194D01*
X457674Y50208D01*
X457691Y50218D01*
X457758Y50297D01*
X457830Y50372D01*
X457838Y50390D01*
X457851Y50405D01*
X457890Y50501D01*
X457933Y50595D01*
X457935Y50615D01*
X457943Y50633D01*
X457961Y50800D01*
X457961Y381000D01*
X457958Y381020D01*
X457960Y381039D01*
X457938Y381141D01*
X457922Y381243D01*
X457912Y381260D01*
X457908Y381280D01*
X457855Y381369D01*
X457806Y381460D01*
X457792Y381474D01*
X457782Y381491D01*
X457703Y381558D01*
X457628Y381630D01*
X457610Y381638D01*
X457595Y381651D01*
X457499Y381690D01*
X457405Y381733D01*
X457385Y381735D01*
X457367Y381743D01*
X457200Y381761D01*
X38100Y381761D01*
X38080Y381758D01*
X38061Y381760D01*
X37959Y381738D01*
X37857Y381722D01*
X37840Y381712D01*
X37820Y381708D01*
X37731Y381655D01*
X37640Y381606D01*
X37626Y381592D01*
X37609Y381582D01*
X37542Y381503D01*
X37471Y381428D01*
X37462Y381410D01*
X37449Y381395D01*
X37410Y381299D01*
X37367Y381205D01*
X37365Y381185D01*
X37357Y381167D01*
X37339Y381000D01*
X37339Y50800D01*
X37342Y50780D01*
X37340Y50761D01*
X37362Y50659D01*
X37379Y50557D01*
X37388Y50540D01*
X37392Y50520D01*
X37445Y50431D01*
X37494Y50340D01*
X37508Y50326D01*
X37518Y50309D01*
X37597Y50242D01*
X37672Y50171D01*
X37690Y50162D01*
X37705Y50149D01*
X37801Y50110D01*
X37895Y50067D01*
X37915Y50065D01*
X37933Y50057D01*
X38100Y50039D01*
X457200Y50039D01*
X457220Y50042D01*
G37*
%LPC*%
G36*
X324068Y99275D02*
X324068Y99275D01*
X323175Y100168D01*
X323175Y111432D01*
X324068Y112325D01*
X332803Y112325D01*
X332894Y112339D01*
X332984Y112347D01*
X333014Y112359D01*
X333046Y112364D01*
X333127Y112407D01*
X333211Y112443D01*
X333243Y112469D01*
X333264Y112480D01*
X333286Y112503D01*
X333342Y112548D01*
X335770Y114976D01*
X335812Y115034D01*
X335861Y115086D01*
X335883Y115133D01*
X335913Y115175D01*
X335934Y115244D01*
X335965Y115309D01*
X335970Y115361D01*
X335986Y115411D01*
X335984Y115482D01*
X335992Y115553D01*
X335981Y115604D01*
X335979Y115656D01*
X335955Y115724D01*
X335940Y115794D01*
X335913Y115839D01*
X335895Y115887D01*
X335850Y115943D01*
X335813Y116005D01*
X335774Y116039D01*
X335741Y116079D01*
X335681Y116118D01*
X335626Y116165D01*
X335578Y116184D01*
X335534Y116212D01*
X335465Y116230D01*
X335398Y116257D01*
X335327Y116265D01*
X335296Y116273D01*
X335272Y116271D01*
X335232Y116275D01*
X324068Y116275D01*
X323175Y117168D01*
X323175Y128432D01*
X324068Y129325D01*
X326136Y129325D01*
X326156Y129328D01*
X326175Y129326D01*
X326277Y129348D01*
X326379Y129364D01*
X326396Y129374D01*
X326416Y129378D01*
X326505Y129431D01*
X326596Y129480D01*
X326610Y129494D01*
X326627Y129504D01*
X326694Y129583D01*
X326766Y129658D01*
X326774Y129676D01*
X326787Y129691D01*
X326826Y129787D01*
X326869Y129881D01*
X326871Y129901D01*
X326879Y129919D01*
X326897Y130086D01*
X326897Y160281D01*
X326883Y160372D01*
X326875Y160462D01*
X326863Y160492D01*
X326858Y160524D01*
X326815Y160605D01*
X326779Y160689D01*
X326753Y160721D01*
X326742Y160742D01*
X326719Y160764D01*
X326674Y160820D01*
X314705Y172789D01*
X314705Y217355D01*
X322374Y225024D01*
X322443Y225119D01*
X322512Y225213D01*
X322514Y225219D01*
X322518Y225224D01*
X322552Y225335D01*
X322588Y225447D01*
X322588Y225453D01*
X322590Y225459D01*
X322587Y225576D01*
X322586Y225693D01*
X322584Y225700D01*
X322584Y225705D01*
X322577Y225722D01*
X322539Y225854D01*
X322071Y226983D01*
X322071Y228608D01*
X322060Y228678D01*
X322058Y228750D01*
X322040Y228799D01*
X322032Y228850D01*
X321998Y228914D01*
X321973Y228981D01*
X321941Y229022D01*
X321916Y229068D01*
X321864Y229117D01*
X321820Y229173D01*
X321776Y229201D01*
X321738Y229237D01*
X321673Y229267D01*
X321613Y229306D01*
X321562Y229319D01*
X321515Y229341D01*
X321444Y229349D01*
X321374Y229366D01*
X321322Y229362D01*
X321271Y229368D01*
X321200Y229353D01*
X321129Y229347D01*
X321081Y229327D01*
X321030Y229316D01*
X320969Y229279D01*
X320903Y229251D01*
X320847Y229206D01*
X320819Y229189D01*
X320804Y229172D01*
X320772Y229146D01*
X317939Y226313D01*
X262360Y226313D01*
X262245Y226294D01*
X262129Y226277D01*
X262123Y226275D01*
X262117Y226274D01*
X262015Y226219D01*
X261910Y226166D01*
X261905Y226161D01*
X261900Y226158D01*
X261820Y226074D01*
X261737Y225990D01*
X261734Y225984D01*
X261730Y225980D01*
X261723Y225963D01*
X261657Y225843D01*
X260891Y223995D01*
X258605Y221709D01*
X255617Y220471D01*
X252383Y220471D01*
X249395Y221709D01*
X247109Y223995D01*
X245871Y226983D01*
X245871Y230217D01*
X247109Y233205D01*
X249395Y235491D01*
X252383Y236729D01*
X255617Y236729D01*
X258605Y235491D01*
X260891Y233205D01*
X261657Y231357D01*
X261719Y231257D01*
X261778Y231157D01*
X261783Y231153D01*
X261786Y231148D01*
X261877Y231073D01*
X261965Y230997D01*
X261971Y230995D01*
X261976Y230991D01*
X262084Y230949D01*
X262193Y230905D01*
X262201Y230904D01*
X262205Y230903D01*
X262224Y230902D01*
X262360Y230887D01*
X315729Y230887D01*
X315820Y230901D01*
X315910Y230909D01*
X315940Y230921D01*
X315972Y230926D01*
X316053Y230969D01*
X316137Y231005D01*
X316169Y231031D01*
X316190Y231042D01*
X316212Y231065D01*
X316268Y231110D01*
X325189Y240031D01*
X334703Y240031D01*
X342139Y232595D01*
X342139Y212413D01*
X337580Y207854D01*
X337512Y207760D01*
X337442Y207665D01*
X337440Y207659D01*
X337436Y207654D01*
X337402Y207543D01*
X337365Y207431D01*
X337365Y207425D01*
X337364Y207419D01*
X337367Y207302D01*
X337368Y207185D01*
X337370Y207178D01*
X337370Y207173D01*
X337376Y207155D01*
X337415Y207024D01*
X338329Y204817D01*
X338329Y201583D01*
X337091Y198595D01*
X334805Y196309D01*
X331817Y195071D01*
X328583Y195071D01*
X326376Y195985D01*
X326262Y196012D01*
X326149Y196041D01*
X326143Y196040D01*
X326137Y196042D01*
X326020Y196031D01*
X325904Y196022D01*
X325898Y196019D01*
X325892Y196019D01*
X325784Y195971D01*
X325677Y195925D01*
X325672Y195921D01*
X325667Y195919D01*
X325653Y195906D01*
X325546Y195820D01*
X322550Y192824D01*
X322497Y192750D01*
X322437Y192680D01*
X322425Y192650D01*
X322406Y192624D01*
X322379Y192537D01*
X322345Y192452D01*
X322341Y192411D01*
X322334Y192389D01*
X322335Y192357D01*
X322327Y192285D01*
X322327Y183260D01*
X322338Y183190D01*
X322340Y183118D01*
X322358Y183069D01*
X322366Y183018D01*
X322400Y182954D01*
X322425Y182887D01*
X322457Y182846D01*
X322482Y182800D01*
X322534Y182751D01*
X322578Y182695D01*
X322622Y182667D01*
X322660Y182631D01*
X322725Y182601D01*
X322785Y182562D01*
X322836Y182549D01*
X322883Y182527D01*
X322954Y182519D01*
X323024Y182502D01*
X323076Y182506D01*
X323127Y182500D01*
X323198Y182515D01*
X323269Y182521D01*
X323317Y182541D01*
X323368Y182552D01*
X323429Y182589D01*
X323495Y182617D01*
X323551Y182662D01*
X323579Y182679D01*
X323594Y182696D01*
X323626Y182722D01*
X325595Y184691D01*
X328583Y185929D01*
X331817Y185929D01*
X334805Y184691D01*
X337091Y182405D01*
X337646Y181065D01*
X337708Y180965D01*
X337768Y180865D01*
X337773Y180861D01*
X337776Y180856D01*
X337866Y180781D01*
X337955Y180705D01*
X337960Y180703D01*
X337965Y180699D01*
X338074Y180657D01*
X338183Y180613D01*
X338190Y180612D01*
X338195Y180611D01*
X338213Y180610D01*
X338350Y180595D01*
X369414Y180595D01*
X369434Y180598D01*
X369453Y180596D01*
X369555Y180618D01*
X369657Y180634D01*
X369674Y180644D01*
X369694Y180648D01*
X369783Y180701D01*
X369874Y180750D01*
X369888Y180764D01*
X369905Y180774D01*
X369972Y180853D01*
X370044Y180928D01*
X370052Y180946D01*
X370065Y180961D01*
X370104Y181057D01*
X370147Y181151D01*
X370149Y181171D01*
X370157Y181189D01*
X370175Y181356D01*
X370175Y187432D01*
X371068Y188325D01*
X388332Y188325D01*
X389225Y187432D01*
X389225Y168168D01*
X388332Y167275D01*
X371068Y167275D01*
X370175Y168168D01*
X370175Y175260D01*
X370172Y175280D01*
X370174Y175299D01*
X370152Y175401D01*
X370136Y175503D01*
X370126Y175520D01*
X370122Y175540D01*
X370069Y175629D01*
X370020Y175720D01*
X370006Y175734D01*
X369996Y175751D01*
X369917Y175818D01*
X369842Y175890D01*
X369824Y175898D01*
X369809Y175911D01*
X369713Y175950D01*
X369619Y175993D01*
X369599Y175995D01*
X369581Y176003D01*
X369414Y176021D01*
X338770Y176021D01*
X338656Y176002D01*
X338539Y175985D01*
X338534Y175983D01*
X338528Y175982D01*
X338425Y175927D01*
X338320Y175874D01*
X338316Y175869D01*
X338310Y175866D01*
X338230Y175782D01*
X338148Y175698D01*
X338144Y175692D01*
X338141Y175688D01*
X338133Y175671D01*
X338067Y175551D01*
X337091Y173195D01*
X334805Y170909D01*
X331817Y169671D01*
X330700Y169671D01*
X330630Y169660D01*
X330558Y169658D01*
X330509Y169640D01*
X330458Y169632D01*
X330394Y169598D01*
X330327Y169573D01*
X330286Y169541D01*
X330240Y169516D01*
X330191Y169464D01*
X330135Y169420D01*
X330107Y169376D01*
X330071Y169338D01*
X330041Y169273D01*
X330002Y169213D01*
X329989Y169162D01*
X329967Y169115D01*
X329959Y169044D01*
X329942Y168974D01*
X329946Y168922D01*
X329940Y168871D01*
X329955Y168800D01*
X329961Y168729D01*
X329981Y168681D01*
X329992Y168630D01*
X330029Y168569D01*
X330057Y168503D01*
X330102Y168447D01*
X330119Y168419D01*
X330136Y168404D01*
X330162Y168372D01*
X340615Y157919D01*
X340615Y113353D01*
X337448Y110186D01*
X337395Y110112D01*
X337335Y110042D01*
X337323Y110012D01*
X337304Y109986D01*
X337277Y109899D01*
X337243Y109814D01*
X337239Y109773D01*
X337232Y109751D01*
X337233Y109719D01*
X337225Y109647D01*
X337225Y100168D01*
X336332Y99275D01*
X324068Y99275D01*
G37*
%LPD*%
%LPC*%
G36*
X199833Y118871D02*
X199833Y118871D01*
X195071Y123633D01*
X195071Y130367D01*
X195551Y130847D01*
X195563Y130863D01*
X195578Y130875D01*
X195634Y130962D01*
X195694Y131046D01*
X195700Y131065D01*
X195711Y131082D01*
X195736Y131183D01*
X195767Y131281D01*
X195766Y131301D01*
X195771Y131321D01*
X195763Y131424D01*
X195760Y131527D01*
X195754Y131546D01*
X195752Y131566D01*
X195712Y131661D01*
X195676Y131758D01*
X195663Y131774D01*
X195656Y131792D01*
X195551Y131923D01*
X191261Y136213D01*
X191261Y156395D01*
X200182Y165316D01*
X200235Y165390D01*
X200295Y165460D01*
X200307Y165490D01*
X200326Y165516D01*
X200353Y165603D01*
X200387Y165688D01*
X200391Y165729D01*
X200398Y165751D01*
X200397Y165783D01*
X200405Y165855D01*
X200405Y212814D01*
X200402Y212834D01*
X200404Y212853D01*
X200382Y212955D01*
X200366Y213057D01*
X200356Y213074D01*
X200352Y213094D01*
X200299Y213183D01*
X200250Y213274D01*
X200236Y213288D01*
X200226Y213305D01*
X200147Y213372D01*
X200072Y213444D01*
X200054Y213452D01*
X200039Y213465D01*
X199943Y213504D01*
X199849Y213547D01*
X199829Y213549D01*
X199811Y213557D01*
X199644Y213575D01*
X197068Y213575D01*
X196175Y214468D01*
X196175Y225732D01*
X197068Y226625D01*
X209332Y226625D01*
X210225Y225732D01*
X210225Y214468D01*
X209332Y213575D01*
X205740Y213575D01*
X205720Y213572D01*
X205701Y213574D01*
X205599Y213552D01*
X205497Y213536D01*
X205480Y213526D01*
X205460Y213522D01*
X205371Y213469D01*
X205280Y213420D01*
X205266Y213406D01*
X205249Y213396D01*
X205182Y213317D01*
X205110Y213242D01*
X205102Y213224D01*
X205089Y213209D01*
X205050Y213113D01*
X205007Y213019D01*
X205005Y212999D01*
X204997Y212981D01*
X204979Y212814D01*
X204979Y163645D01*
X203162Y161828D01*
X203120Y161770D01*
X203071Y161718D01*
X203049Y161671D01*
X203019Y161629D01*
X202998Y161560D01*
X202967Y161495D01*
X202962Y161443D01*
X202946Y161393D01*
X202948Y161322D01*
X202940Y161251D01*
X202951Y161200D01*
X202953Y161148D01*
X202977Y161080D01*
X202992Y161010D01*
X203019Y160965D01*
X203037Y160917D01*
X203082Y160861D01*
X203119Y160799D01*
X203158Y160765D01*
X203191Y160725D01*
X203251Y160686D01*
X203306Y160639D01*
X203354Y160620D01*
X203398Y160592D01*
X203467Y160574D01*
X203534Y160547D01*
X203605Y160539D01*
X203636Y160531D01*
X203660Y160533D01*
X203700Y160529D01*
X206567Y160529D01*
X211329Y155767D01*
X211329Y149033D01*
X206567Y144271D01*
X199833Y144271D01*
X197134Y146970D01*
X197076Y147012D01*
X197024Y147061D01*
X196977Y147083D01*
X196935Y147114D01*
X196866Y147135D01*
X196801Y147165D01*
X196749Y147171D01*
X196699Y147186D01*
X196628Y147184D01*
X196557Y147192D01*
X196506Y147181D01*
X196454Y147180D01*
X196386Y147155D01*
X196316Y147140D01*
X196271Y147113D01*
X196223Y147095D01*
X196167Y147050D01*
X196105Y147013D01*
X196071Y146974D01*
X196031Y146941D01*
X195992Y146881D01*
X195945Y146827D01*
X195926Y146778D01*
X195898Y146734D01*
X195880Y146665D01*
X195853Y146598D01*
X195845Y146527D01*
X195837Y146496D01*
X195839Y146473D01*
X195835Y146432D01*
X195835Y138423D01*
X195849Y138332D01*
X195857Y138242D01*
X195869Y138212D01*
X195874Y138180D01*
X195917Y138099D01*
X195953Y138015D01*
X195979Y137983D01*
X195990Y137962D01*
X196013Y137940D01*
X196058Y137884D01*
X198785Y135157D01*
X198801Y135145D01*
X198813Y135130D01*
X198901Y135074D01*
X198985Y135014D01*
X199004Y135008D01*
X199020Y134997D01*
X199121Y134972D01*
X199220Y134941D01*
X199240Y134942D01*
X199259Y134937D01*
X199362Y134945D01*
X199465Y134948D01*
X199484Y134954D01*
X199504Y134956D01*
X199599Y134996D01*
X199697Y135032D01*
X199712Y135045D01*
X199730Y135052D01*
X199826Y135129D01*
X206567Y135129D01*
X211329Y130367D01*
X211329Y123633D01*
X206567Y118871D01*
X199833Y118871D01*
G37*
%LPD*%
%LPC*%
G36*
X132545Y173227D02*
X132545Y173227D01*
X122427Y183345D01*
X122427Y197655D01*
X132545Y207773D01*
X146855Y207773D01*
X156973Y197655D01*
X156973Y183345D01*
X146855Y173227D01*
X132545Y173227D01*
G37*
%LPD*%
%LPC*%
G36*
X428784Y340439D02*
X428784Y340439D01*
X423212Y342747D01*
X418947Y347012D01*
X416639Y352584D01*
X416639Y358616D01*
X418947Y364188D01*
X423212Y368453D01*
X428784Y370761D01*
X434816Y370761D01*
X440388Y368453D01*
X444653Y364188D01*
X446961Y358616D01*
X446961Y352584D01*
X444653Y347012D01*
X440388Y342747D01*
X434816Y340439D01*
X428784Y340439D01*
G37*
%LPD*%
%LPC*%
G36*
X60484Y340439D02*
X60484Y340439D01*
X54912Y342747D01*
X50647Y347012D01*
X48339Y352584D01*
X48339Y358616D01*
X50647Y364188D01*
X54912Y368453D01*
X60484Y370761D01*
X66516Y370761D01*
X72088Y368453D01*
X76353Y364188D01*
X78661Y358616D01*
X78661Y352584D01*
X76353Y347012D01*
X72088Y342747D01*
X66516Y340439D01*
X60484Y340439D01*
G37*
%LPD*%
%LPC*%
G36*
X73184Y73739D02*
X73184Y73739D01*
X67612Y76047D01*
X63347Y80312D01*
X61039Y85884D01*
X61039Y91916D01*
X63347Y97488D01*
X67612Y101753D01*
X73184Y104061D01*
X79216Y104061D01*
X84788Y101753D01*
X89053Y97488D01*
X91361Y91916D01*
X91361Y85884D01*
X89053Y80312D01*
X84788Y76047D01*
X79216Y73739D01*
X73184Y73739D01*
G37*
%LPD*%
%LPC*%
G36*
X428784Y61039D02*
X428784Y61039D01*
X423212Y63347D01*
X418947Y67612D01*
X416639Y73184D01*
X416639Y79216D01*
X418947Y84788D01*
X423212Y89053D01*
X428784Y91361D01*
X434816Y91361D01*
X440388Y89053D01*
X444653Y84788D01*
X446961Y79216D01*
X446961Y73184D01*
X444653Y67612D01*
X440388Y63347D01*
X434816Y61039D01*
X428784Y61039D01*
G37*
%LPD*%
%LPC*%
G36*
X252383Y195071D02*
X252383Y195071D01*
X249395Y196309D01*
X247109Y198595D01*
X245871Y201583D01*
X245871Y204817D01*
X246637Y206665D01*
X246663Y206777D01*
X246692Y206892D01*
X246691Y206898D01*
X246693Y206904D01*
X246682Y207021D01*
X246673Y207137D01*
X246670Y207143D01*
X246670Y207149D01*
X246622Y207257D01*
X246576Y207363D01*
X246572Y207369D01*
X246570Y207374D01*
X246557Y207388D01*
X246472Y207494D01*
X220256Y233710D01*
X220182Y233763D01*
X220112Y233823D01*
X220082Y233835D01*
X220056Y233854D01*
X219969Y233881D01*
X219884Y233915D01*
X219843Y233919D01*
X219821Y233926D01*
X219789Y233925D01*
X219717Y233933D01*
X210986Y233933D01*
X210966Y233930D01*
X210947Y233932D01*
X210845Y233910D01*
X210743Y233894D01*
X210726Y233884D01*
X210706Y233880D01*
X210617Y233827D01*
X210526Y233778D01*
X210512Y233764D01*
X210495Y233754D01*
X210428Y233675D01*
X210356Y233600D01*
X210348Y233582D01*
X210335Y233567D01*
X210296Y233471D01*
X210253Y233377D01*
X210251Y233357D01*
X210243Y233339D01*
X210225Y233172D01*
X210225Y231468D01*
X209332Y230575D01*
X197068Y230575D01*
X196175Y231468D01*
X196175Y242732D01*
X197068Y243625D01*
X209332Y243625D01*
X210225Y242732D01*
X210225Y239268D01*
X210228Y239248D01*
X210226Y239229D01*
X210248Y239127D01*
X210264Y239025D01*
X210274Y239008D01*
X210278Y238988D01*
X210331Y238899D01*
X210380Y238808D01*
X210394Y238794D01*
X210404Y238777D01*
X210483Y238710D01*
X210558Y238638D01*
X210576Y238630D01*
X210591Y238617D01*
X210687Y238578D01*
X210781Y238535D01*
X210801Y238533D01*
X210819Y238525D01*
X210986Y238507D01*
X221927Y238507D01*
X249706Y210728D01*
X249800Y210661D01*
X249894Y210590D01*
X249900Y210588D01*
X249905Y210585D01*
X250016Y210551D01*
X250128Y210514D01*
X250134Y210514D01*
X250140Y210512D01*
X250257Y210515D01*
X250374Y210517D01*
X250381Y210519D01*
X250386Y210519D01*
X250404Y210525D01*
X250535Y210563D01*
X252383Y211329D01*
X255617Y211329D01*
X258605Y210091D01*
X260891Y207805D01*
X262129Y204817D01*
X262129Y201583D01*
X260891Y198595D01*
X258605Y196309D01*
X255617Y195071D01*
X252383Y195071D01*
G37*
%LPD*%
%LPC*%
G36*
X141223Y242823D02*
X141223Y242823D01*
X141223Y259589D01*
X147275Y259589D01*
X157989Y248875D01*
X157989Y242823D01*
X141223Y242823D01*
G37*
%LPD*%
%LPC*%
G36*
X121411Y242823D02*
X121411Y242823D01*
X121411Y248875D01*
X132125Y259589D01*
X138177Y259589D01*
X138177Y242823D01*
X121411Y242823D01*
G37*
%LPD*%
%LPC*%
G36*
X141223Y223011D02*
X141223Y223011D01*
X141223Y239777D01*
X157989Y239777D01*
X157989Y233725D01*
X147275Y223011D01*
X141223Y223011D01*
G37*
%LPD*%
%LPC*%
G36*
X132125Y223011D02*
X132125Y223011D01*
X121411Y233725D01*
X121411Y239777D01*
X138177Y239777D01*
X138177Y223011D01*
X132125Y223011D01*
G37*
%LPD*%
%LPC*%
G36*
X187133Y296671D02*
X187133Y296671D01*
X182371Y301433D01*
X182371Y308167D01*
X187133Y312929D01*
X193867Y312929D01*
X198629Y308167D01*
X198629Y301433D01*
X193867Y296671D01*
X187133Y296671D01*
G37*
%LPD*%
%LPC*%
G36*
X328583Y245871D02*
X328583Y245871D01*
X325595Y247109D01*
X323309Y249395D01*
X322071Y252383D01*
X322071Y255617D01*
X323309Y258605D01*
X325595Y260891D01*
X328583Y262129D01*
X331817Y262129D01*
X334805Y260891D01*
X337091Y258605D01*
X338329Y255617D01*
X338329Y252383D01*
X337091Y249395D01*
X334805Y247109D01*
X331817Y245871D01*
X328583Y245871D01*
G37*
%LPD*%
%LPC*%
G36*
X252383Y169671D02*
X252383Y169671D01*
X249395Y170909D01*
X247109Y173195D01*
X245871Y176183D01*
X245871Y179417D01*
X247109Y182405D01*
X249395Y184691D01*
X252383Y185929D01*
X255617Y185929D01*
X258605Y184691D01*
X260891Y182405D01*
X262129Y179417D01*
X262129Y176183D01*
X260891Y173195D01*
X258605Y170909D01*
X255617Y169671D01*
X252383Y169671D01*
G37*
%LPD*%
%LPC*%
G36*
X409223Y179323D02*
X409223Y179323D01*
X409223Y189341D01*
X416034Y189341D01*
X416681Y189168D01*
X417260Y188833D01*
X417733Y188360D01*
X418068Y187781D01*
X418241Y187134D01*
X418241Y179323D01*
X409223Y179323D01*
G37*
%LPD*%
%LPC*%
G36*
X397159Y179323D02*
X397159Y179323D01*
X397159Y187134D01*
X397332Y187781D01*
X397667Y188360D01*
X398140Y188833D01*
X398719Y189168D01*
X399366Y189341D01*
X406177Y189341D01*
X406177Y179323D01*
X397159Y179323D01*
G37*
%LPD*%
%LPC*%
G36*
X409223Y166259D02*
X409223Y166259D01*
X409223Y176277D01*
X418241Y176277D01*
X418241Y168466D01*
X418068Y167819D01*
X417733Y167240D01*
X417260Y166767D01*
X416681Y166432D01*
X416034Y166259D01*
X409223Y166259D01*
G37*
%LPD*%
%LPC*%
G36*
X399366Y166259D02*
X399366Y166259D01*
X398719Y166432D01*
X398140Y166767D01*
X397667Y167240D01*
X397332Y167819D01*
X397159Y168466D01*
X397159Y176277D01*
X406177Y176277D01*
X406177Y166259D01*
X399366Y166259D01*
G37*
%LPD*%
%LPC*%
G36*
X192023Y280923D02*
X192023Y280923D01*
X192023Y288545D01*
X194288Y288545D01*
X199645Y283188D01*
X199645Y280923D01*
X192023Y280923D01*
G37*
%LPD*%
%LPC*%
G36*
X181355Y280923D02*
X181355Y280923D01*
X181355Y283188D01*
X186712Y288545D01*
X188977Y288545D01*
X188977Y280923D01*
X181355Y280923D01*
G37*
%LPD*%
%LPC*%
G36*
X192023Y270255D02*
X192023Y270255D01*
X192023Y277877D01*
X199645Y277877D01*
X199645Y275612D01*
X194288Y270255D01*
X192023Y270255D01*
G37*
%LPD*%
%LPC*%
G36*
X186712Y270255D02*
X186712Y270255D01*
X181355Y275612D01*
X181355Y277877D01*
X188977Y277877D01*
X188977Y270255D01*
X186712Y270255D01*
G37*
%LPD*%
%LPC*%
G36*
X255523Y255523D02*
X255523Y255523D01*
X255523Y263021D01*
X256667Y262793D01*
X258332Y262104D01*
X259830Y261103D01*
X261103Y259830D01*
X262104Y258332D01*
X262793Y256667D01*
X263021Y255523D01*
X255523Y255523D01*
G37*
%LPD*%
%LPC*%
G36*
X244979Y255523D02*
X244979Y255523D01*
X245207Y256667D01*
X245896Y258332D01*
X246897Y259830D01*
X248170Y261103D01*
X249668Y262104D01*
X251333Y262793D01*
X252477Y263021D01*
X252477Y255523D01*
X244979Y255523D01*
G37*
%LPD*%
%LPC*%
G36*
X255523Y252477D02*
X255523Y252477D01*
X263021Y252477D01*
X262793Y251333D01*
X262104Y249668D01*
X261103Y248170D01*
X259830Y246897D01*
X258332Y245896D01*
X256667Y245207D01*
X255523Y244979D01*
X255523Y252477D01*
G37*
%LPD*%
%LPC*%
G36*
X251333Y245207D02*
X251333Y245207D01*
X249668Y245896D01*
X248170Y246897D01*
X246897Y248170D01*
X245896Y249668D01*
X245207Y251333D01*
X244979Y252477D01*
X252477Y252477D01*
X252477Y244979D01*
X251333Y245207D01*
G37*
%LPD*%
%LPC*%
G36*
X190499Y279399D02*
X190499Y279399D01*
X190499Y279401D01*
X190501Y279401D01*
X190501Y279399D01*
X190499Y279399D01*
G37*
%LPD*%
%LPC*%
G36*
X253999Y253999D02*
X253999Y253999D01*
X253999Y254001D01*
X254001Y254001D01*
X254001Y253999D01*
X253999Y253999D01*
G37*
%LPD*%
%LPC*%
G36*
X139699Y241299D02*
X139699Y241299D01*
X139699Y241301D01*
X139701Y241301D01*
X139701Y241299D01*
X139699Y241299D01*
G37*
%LPD*%
%LPC*%
G36*
X407699Y177799D02*
X407699Y177799D01*
X407699Y177801D01*
X407701Y177801D01*
X407701Y177799D01*
X407699Y177799D01*
G37*
%LPD*%
D10*
X407700Y177800D03*
X379700Y177800D03*
D11*
X139700Y241300D03*
X139700Y190500D03*
D12*
X254000Y254000D03*
X254000Y228600D03*
X330200Y228600D03*
X330200Y254000D03*
X254000Y203200D03*
X254000Y177800D03*
X330200Y203200D03*
X330200Y177800D03*
D13*
X203200Y152400D03*
X203200Y127000D03*
X190500Y304800D03*
X190500Y279400D03*
D14*
X330200Y105800D03*
X330200Y122800D03*
X203200Y237100D03*
X203200Y220100D03*
D15*
X329184Y161544D02*
X329184Y123444D01*
X329184Y161544D02*
X316992Y173736D01*
X316992Y216408D01*
X329184Y228600D01*
X329184Y123444D02*
X330200Y122800D01*
X330200Y228600D02*
X329184Y228600D01*
X338328Y114300D02*
X330708Y106680D01*
X338328Y114300D02*
X338328Y156972D01*
X320040Y175260D01*
X320040Y193548D01*
X329184Y202692D01*
X330708Y106680D02*
X330200Y105800D01*
X329184Y202692D02*
X330200Y203200D01*
X316992Y228600D02*
X254000Y228600D01*
X316992Y228600D02*
X326136Y237744D01*
X333756Y237744D01*
X339852Y231648D01*
X339852Y213360D01*
X330708Y204216D01*
X330200Y203200D01*
X202692Y219456D02*
X202692Y164592D01*
X193548Y155448D01*
X193548Y137160D01*
X202692Y128016D01*
X202692Y219456D02*
X203200Y220100D01*
X202692Y128016D02*
X203200Y127000D01*
X204216Y236220D02*
X220980Y236220D01*
X254000Y203200D01*
X204216Y236220D02*
X203200Y237100D01*
X330708Y178308D02*
X379476Y178308D01*
X379700Y177800D01*
X330708Y178308D02*
X330200Y177800D01*
X190500Y278892D02*
X176784Y278892D01*
X140208Y242316D01*
X190500Y278892D02*
X190500Y279400D01*
X140208Y242316D02*
X139700Y241300D01*
X400812Y178308D02*
X406908Y178308D01*
X400812Y178308D02*
X335280Y243840D01*
X263652Y243840D01*
X254508Y252984D01*
X406908Y178308D02*
X407700Y177800D01*
X254508Y252984D02*
X254000Y254000D01*
M02*
