G04 EAGLE Gerber RS-274X export*
G75*
%MOMM*%
%FSLAX34Y34*%
%LPD*%
%INSilkscreen Top*%
%IPPOS*%
%AMOC8*
5,1,8,0,0,1.08239X$1,22.5*%
G01*
%ADD10C,0.152400*%
%ADD11C,0.101600*%
%ADD12C,0.254000*%
%ADD13C,0.203200*%
%ADD14C,0.127000*%


D10*
X153162Y343662D02*
X153162Y359918D01*
X160387Y359918D01*
X160387Y352693D02*
X153162Y352693D01*
X166256Y346371D02*
X166256Y359918D01*
X166256Y346371D02*
X166258Y346270D01*
X166264Y346169D01*
X166273Y346068D01*
X166286Y345967D01*
X166303Y345867D01*
X166324Y345768D01*
X166348Y345670D01*
X166376Y345573D01*
X166408Y345476D01*
X166443Y345381D01*
X166482Y345288D01*
X166524Y345196D01*
X166570Y345105D01*
X166619Y345017D01*
X166671Y344930D01*
X166727Y344845D01*
X166785Y344762D01*
X166847Y344682D01*
X166912Y344604D01*
X166979Y344528D01*
X167049Y344455D01*
X167122Y344385D01*
X167198Y344318D01*
X167276Y344253D01*
X167356Y344191D01*
X167439Y344133D01*
X167524Y344077D01*
X167611Y344025D01*
X167699Y343976D01*
X167790Y343930D01*
X167882Y343888D01*
X167975Y343849D01*
X168070Y343814D01*
X168167Y343782D01*
X168264Y343754D01*
X168362Y343730D01*
X168461Y343709D01*
X168561Y343692D01*
X168662Y343679D01*
X168763Y343670D01*
X168864Y343664D01*
X168965Y343662D01*
X177444Y349984D02*
X181508Y349984D01*
X177444Y349984D02*
X177332Y349982D01*
X177221Y349976D01*
X177110Y349966D01*
X176999Y349953D01*
X176889Y349935D01*
X176780Y349913D01*
X176671Y349888D01*
X176563Y349859D01*
X176457Y349826D01*
X176351Y349789D01*
X176247Y349749D01*
X176145Y349705D01*
X176044Y349657D01*
X175945Y349606D01*
X175847Y349551D01*
X175752Y349493D01*
X175659Y349432D01*
X175568Y349367D01*
X175479Y349299D01*
X175393Y349228D01*
X175310Y349155D01*
X175229Y349078D01*
X175150Y348998D01*
X175075Y348916D01*
X175003Y348831D01*
X174933Y348744D01*
X174867Y348654D01*
X174804Y348562D01*
X174744Y348467D01*
X174688Y348371D01*
X174635Y348273D01*
X174586Y348173D01*
X174540Y348071D01*
X174498Y347968D01*
X174459Y347863D01*
X174424Y347757D01*
X174393Y347650D01*
X174366Y347542D01*
X174342Y347433D01*
X174323Y347323D01*
X174307Y347213D01*
X174295Y347102D01*
X174287Y346990D01*
X174283Y346879D01*
X174283Y346767D01*
X174287Y346656D01*
X174295Y346544D01*
X174307Y346433D01*
X174323Y346323D01*
X174342Y346213D01*
X174366Y346104D01*
X174393Y345996D01*
X174424Y345889D01*
X174459Y345783D01*
X174498Y345678D01*
X174540Y345575D01*
X174586Y345473D01*
X174635Y345373D01*
X174688Y345275D01*
X174744Y345179D01*
X174804Y345084D01*
X174867Y344992D01*
X174933Y344902D01*
X175003Y344815D01*
X175075Y344730D01*
X175150Y344648D01*
X175229Y344568D01*
X175310Y344491D01*
X175393Y344418D01*
X175479Y344347D01*
X175568Y344279D01*
X175659Y344214D01*
X175752Y344153D01*
X175847Y344095D01*
X175945Y344040D01*
X176044Y343989D01*
X176145Y343941D01*
X176247Y343897D01*
X176351Y343857D01*
X176457Y343820D01*
X176563Y343787D01*
X176671Y343758D01*
X176780Y343733D01*
X176889Y343711D01*
X176999Y343693D01*
X177110Y343680D01*
X177221Y343670D01*
X177332Y343664D01*
X177444Y343662D01*
X181508Y343662D01*
X181508Y351790D01*
X181507Y351790D02*
X181505Y351891D01*
X181499Y351992D01*
X181490Y352093D01*
X181477Y352194D01*
X181460Y352294D01*
X181439Y352393D01*
X181415Y352491D01*
X181387Y352588D01*
X181355Y352685D01*
X181320Y352780D01*
X181281Y352873D01*
X181239Y352965D01*
X181193Y353056D01*
X181144Y353145D01*
X181092Y353231D01*
X181036Y353316D01*
X180978Y353399D01*
X180916Y353479D01*
X180851Y353557D01*
X180784Y353633D01*
X180714Y353706D01*
X180641Y353776D01*
X180565Y353843D01*
X180487Y353908D01*
X180407Y353970D01*
X180324Y354028D01*
X180239Y354084D01*
X180153Y354136D01*
X180064Y354185D01*
X179973Y354231D01*
X179881Y354273D01*
X179788Y354312D01*
X179693Y354347D01*
X179596Y354379D01*
X179499Y354407D01*
X179401Y354431D01*
X179302Y354452D01*
X179202Y354469D01*
X179101Y354482D01*
X179000Y354491D01*
X178899Y354497D01*
X178798Y354499D01*
X175186Y354499D01*
X189779Y349984D02*
X194294Y348178D01*
X189778Y349984D02*
X189690Y350021D01*
X189604Y350062D01*
X189519Y350106D01*
X189436Y350154D01*
X189356Y350205D01*
X189277Y350259D01*
X189201Y350317D01*
X189127Y350377D01*
X189055Y350441D01*
X188987Y350507D01*
X188921Y350577D01*
X188858Y350648D01*
X188797Y350723D01*
X188740Y350799D01*
X188687Y350878D01*
X188636Y350959D01*
X188589Y351042D01*
X188545Y351127D01*
X188505Y351214D01*
X188468Y351302D01*
X188435Y351392D01*
X188405Y351483D01*
X188380Y351575D01*
X188358Y351668D01*
X188340Y351762D01*
X188325Y351856D01*
X188315Y351951D01*
X188309Y352047D01*
X188306Y352142D01*
X188307Y352238D01*
X188313Y352333D01*
X188322Y352429D01*
X188335Y352523D01*
X188351Y352617D01*
X188372Y352711D01*
X188397Y352803D01*
X188425Y352894D01*
X188457Y352984D01*
X188492Y353073D01*
X188531Y353160D01*
X188574Y353246D01*
X188620Y353330D01*
X188670Y353411D01*
X188722Y353491D01*
X188778Y353569D01*
X188838Y353644D01*
X188900Y353716D01*
X188965Y353786D01*
X189033Y353854D01*
X189103Y353918D01*
X189176Y353980D01*
X189252Y354038D01*
X189330Y354094D01*
X189410Y354146D01*
X189492Y354195D01*
X189576Y354240D01*
X189662Y354282D01*
X189749Y354321D01*
X189838Y354356D01*
X189929Y354387D01*
X190020Y354414D01*
X190113Y354438D01*
X190206Y354458D01*
X190300Y354474D01*
X190395Y354486D01*
X190490Y354495D01*
X190586Y354499D01*
X190681Y354500D01*
X190928Y354493D01*
X191174Y354481D01*
X191420Y354463D01*
X191666Y354438D01*
X191910Y354408D01*
X192154Y354372D01*
X192397Y354331D01*
X192639Y354283D01*
X192880Y354229D01*
X193119Y354170D01*
X193357Y354105D01*
X193593Y354034D01*
X193828Y353958D01*
X194061Y353876D01*
X194291Y353788D01*
X194519Y353695D01*
X194746Y353597D01*
X194295Y348177D02*
X194383Y348140D01*
X194469Y348099D01*
X194554Y348055D01*
X194637Y348007D01*
X194717Y347956D01*
X194796Y347902D01*
X194872Y347844D01*
X194946Y347784D01*
X195018Y347720D01*
X195086Y347654D01*
X195152Y347584D01*
X195215Y347513D01*
X195276Y347438D01*
X195333Y347362D01*
X195386Y347283D01*
X195437Y347202D01*
X195484Y347119D01*
X195528Y347034D01*
X195568Y346947D01*
X195605Y346859D01*
X195638Y346769D01*
X195668Y346678D01*
X195693Y346586D01*
X195715Y346493D01*
X195733Y346399D01*
X195748Y346305D01*
X195758Y346210D01*
X195764Y346114D01*
X195767Y346019D01*
X195766Y345923D01*
X195760Y345828D01*
X195751Y345732D01*
X195738Y345638D01*
X195722Y345544D01*
X195701Y345450D01*
X195676Y345358D01*
X195648Y345267D01*
X195616Y345177D01*
X195581Y345088D01*
X195542Y345001D01*
X195499Y344915D01*
X195453Y344831D01*
X195403Y344750D01*
X195351Y344670D01*
X195295Y344592D01*
X195235Y344517D01*
X195173Y344445D01*
X195108Y344375D01*
X195040Y344307D01*
X194970Y344243D01*
X194897Y344181D01*
X194821Y344123D01*
X194743Y344067D01*
X194663Y344015D01*
X194581Y343966D01*
X194497Y343921D01*
X194411Y343879D01*
X194324Y343840D01*
X194235Y343805D01*
X194144Y343774D01*
X194053Y343747D01*
X193960Y343723D01*
X193867Y343703D01*
X193773Y343687D01*
X193678Y343675D01*
X193583Y343666D01*
X193487Y343662D01*
X193392Y343661D01*
X193391Y343662D02*
X193029Y343671D01*
X192667Y343689D01*
X192306Y343716D01*
X191946Y343751D01*
X191586Y343794D01*
X191227Y343846D01*
X190870Y343907D01*
X190515Y343976D01*
X190161Y344053D01*
X189809Y344139D01*
X189459Y344233D01*
X189111Y344336D01*
X188766Y344446D01*
X188424Y344565D01*
X202492Y343662D02*
X202492Y359918D01*
X202492Y354499D02*
X207008Y354499D01*
X207112Y354497D01*
X207215Y354491D01*
X207319Y354481D01*
X207422Y354467D01*
X207524Y354449D01*
X207625Y354428D01*
X207726Y354402D01*
X207825Y354373D01*
X207924Y354340D01*
X208021Y354303D01*
X208116Y354262D01*
X208210Y354218D01*
X208302Y354170D01*
X208392Y354119D01*
X208481Y354064D01*
X208567Y354006D01*
X208650Y353944D01*
X208732Y353880D01*
X208810Y353812D01*
X208886Y353742D01*
X208960Y353669D01*
X209030Y353592D01*
X209098Y353514D01*
X209162Y353432D01*
X209224Y353349D01*
X209282Y353263D01*
X209337Y353174D01*
X209388Y353084D01*
X209436Y352992D01*
X209480Y352898D01*
X209521Y352803D01*
X209558Y352706D01*
X209591Y352607D01*
X209620Y352508D01*
X209646Y352407D01*
X209667Y352306D01*
X209685Y352204D01*
X209699Y352101D01*
X209709Y351997D01*
X209715Y351894D01*
X209717Y351790D01*
X209717Y343662D01*
X216525Y343662D02*
X216525Y354499D01*
X216074Y359015D02*
X216074Y359918D01*
X216977Y359918D01*
X216977Y359015D01*
X216074Y359015D01*
X223334Y354499D02*
X223334Y343662D01*
X223334Y354499D02*
X227849Y354499D01*
X227953Y354497D01*
X228056Y354491D01*
X228160Y354481D01*
X228263Y354467D01*
X228365Y354449D01*
X228466Y354428D01*
X228567Y354402D01*
X228666Y354373D01*
X228765Y354340D01*
X228862Y354303D01*
X228957Y354262D01*
X229051Y354218D01*
X229143Y354170D01*
X229233Y354119D01*
X229322Y354064D01*
X229408Y354006D01*
X229491Y353944D01*
X229573Y353880D01*
X229651Y353812D01*
X229727Y353742D01*
X229801Y353669D01*
X229871Y353592D01*
X229939Y353514D01*
X230003Y353432D01*
X230065Y353349D01*
X230123Y353263D01*
X230178Y353174D01*
X230229Y353084D01*
X230277Y352992D01*
X230321Y352898D01*
X230362Y352803D01*
X230399Y352706D01*
X230432Y352607D01*
X230461Y352508D01*
X230487Y352407D01*
X230508Y352306D01*
X230526Y352204D01*
X230540Y352101D01*
X230550Y351997D01*
X230556Y351894D01*
X230558Y351790D01*
X230559Y351790D02*
X230559Y343662D01*
X240038Y343662D02*
X244553Y343662D01*
X240038Y343662D02*
X239937Y343664D01*
X239836Y343670D01*
X239735Y343679D01*
X239634Y343692D01*
X239534Y343709D01*
X239435Y343730D01*
X239337Y343754D01*
X239240Y343782D01*
X239143Y343814D01*
X239048Y343849D01*
X238955Y343888D01*
X238863Y343930D01*
X238772Y343976D01*
X238684Y344025D01*
X238597Y344077D01*
X238512Y344133D01*
X238429Y344191D01*
X238349Y344253D01*
X238271Y344318D01*
X238195Y344385D01*
X238122Y344455D01*
X238052Y344528D01*
X237985Y344604D01*
X237920Y344682D01*
X237858Y344762D01*
X237800Y344845D01*
X237744Y344930D01*
X237692Y345017D01*
X237643Y345105D01*
X237597Y345196D01*
X237555Y345288D01*
X237516Y345381D01*
X237481Y345476D01*
X237449Y345573D01*
X237421Y345670D01*
X237397Y345768D01*
X237376Y345867D01*
X237359Y345967D01*
X237346Y346068D01*
X237337Y346169D01*
X237331Y346270D01*
X237329Y346371D01*
X237329Y351790D01*
X237331Y351891D01*
X237337Y351992D01*
X237346Y352093D01*
X237359Y352194D01*
X237376Y352294D01*
X237397Y352393D01*
X237421Y352491D01*
X237449Y352588D01*
X237481Y352685D01*
X237516Y352780D01*
X237555Y352873D01*
X237597Y352965D01*
X237643Y353056D01*
X237692Y353145D01*
X237744Y353231D01*
X237800Y353316D01*
X237858Y353399D01*
X237920Y353479D01*
X237985Y353557D01*
X238052Y353633D01*
X238122Y353706D01*
X238195Y353776D01*
X238271Y353843D01*
X238349Y353908D01*
X238429Y353970D01*
X238512Y354028D01*
X238597Y354084D01*
X238684Y354136D01*
X238772Y354185D01*
X238863Y354231D01*
X238955Y354273D01*
X239048Y354312D01*
X239143Y354347D01*
X239240Y354379D01*
X239337Y354407D01*
X239435Y354431D01*
X239534Y354452D01*
X239634Y354469D01*
X239735Y354482D01*
X239836Y354491D01*
X239937Y354497D01*
X240038Y354499D01*
X244553Y354499D01*
X244553Y340953D01*
X244551Y340849D01*
X244545Y340746D01*
X244535Y340642D01*
X244521Y340539D01*
X244503Y340437D01*
X244482Y340336D01*
X244456Y340235D01*
X244427Y340136D01*
X244394Y340037D01*
X244357Y339940D01*
X244316Y339845D01*
X244272Y339751D01*
X244224Y339659D01*
X244173Y339569D01*
X244118Y339480D01*
X244060Y339394D01*
X243998Y339311D01*
X243934Y339229D01*
X243866Y339151D01*
X243796Y339075D01*
X243723Y339001D01*
X243646Y338931D01*
X243568Y338863D01*
X243486Y338799D01*
X243403Y338737D01*
X243317Y338679D01*
X243228Y338624D01*
X243138Y338573D01*
X243046Y338525D01*
X242952Y338481D01*
X242857Y338440D01*
X242760Y338403D01*
X242661Y338370D01*
X242562Y338341D01*
X242461Y338315D01*
X242360Y338294D01*
X242258Y338276D01*
X242155Y338262D01*
X242051Y338252D01*
X241948Y338246D01*
X241844Y338244D01*
X241844Y338243D02*
X238232Y338243D01*
X264913Y359918D02*
X265038Y359916D01*
X265163Y359910D01*
X265288Y359901D01*
X265412Y359887D01*
X265536Y359870D01*
X265660Y359849D01*
X265782Y359824D01*
X265904Y359795D01*
X266025Y359763D01*
X266145Y359727D01*
X266264Y359687D01*
X266381Y359644D01*
X266497Y359597D01*
X266612Y359546D01*
X266724Y359492D01*
X266836Y359434D01*
X266945Y359374D01*
X267052Y359309D01*
X267158Y359242D01*
X267261Y359171D01*
X267362Y359097D01*
X267461Y359020D01*
X267557Y358940D01*
X267651Y358857D01*
X267742Y358772D01*
X267831Y358683D01*
X267916Y358592D01*
X267999Y358498D01*
X268079Y358402D01*
X268156Y358303D01*
X268230Y358202D01*
X268301Y358099D01*
X268368Y357993D01*
X268433Y357886D01*
X268493Y357777D01*
X268551Y357665D01*
X268605Y357553D01*
X268656Y357438D01*
X268703Y357322D01*
X268746Y357205D01*
X268786Y357086D01*
X268822Y356966D01*
X268854Y356845D01*
X268883Y356723D01*
X268908Y356601D01*
X268929Y356477D01*
X268946Y356353D01*
X268960Y356229D01*
X268969Y356104D01*
X268975Y355979D01*
X268977Y355854D01*
X264913Y359918D02*
X264770Y359916D01*
X264628Y359910D01*
X264485Y359900D01*
X264343Y359887D01*
X264202Y359869D01*
X264060Y359848D01*
X263920Y359823D01*
X263780Y359794D01*
X263641Y359761D01*
X263503Y359724D01*
X263366Y359684D01*
X263231Y359640D01*
X263096Y359592D01*
X262963Y359540D01*
X262831Y359485D01*
X262701Y359426D01*
X262573Y359364D01*
X262446Y359298D01*
X262321Y359229D01*
X262198Y359157D01*
X262078Y359081D01*
X261959Y359002D01*
X261842Y358919D01*
X261728Y358834D01*
X261616Y358745D01*
X261507Y358654D01*
X261400Y358559D01*
X261295Y358462D01*
X261194Y358361D01*
X261095Y358258D01*
X260999Y358153D01*
X260906Y358044D01*
X260816Y357933D01*
X260729Y357820D01*
X260645Y357705D01*
X260565Y357587D01*
X260487Y357467D01*
X260413Y357345D01*
X260343Y357221D01*
X260275Y357095D01*
X260212Y356967D01*
X260151Y356838D01*
X260094Y356707D01*
X260041Y356575D01*
X259992Y356441D01*
X259946Y356306D01*
X267621Y352693D02*
X267715Y352785D01*
X267805Y352879D01*
X267893Y352976D01*
X267978Y353076D01*
X268060Y353178D01*
X268139Y353283D01*
X268214Y353390D01*
X268286Y353499D01*
X268355Y353610D01*
X268421Y353724D01*
X268483Y353839D01*
X268542Y353956D01*
X268597Y354075D01*
X268648Y354195D01*
X268696Y354317D01*
X268741Y354440D01*
X268781Y354564D01*
X268818Y354690D01*
X268851Y354817D01*
X268880Y354944D01*
X268906Y355073D01*
X268927Y355202D01*
X268945Y355332D01*
X268958Y355462D01*
X268968Y355592D01*
X268974Y355723D01*
X268976Y355854D01*
X267622Y352693D02*
X259945Y343662D01*
X268977Y343662D01*
X284464Y343662D02*
X284464Y359918D01*
X284464Y343662D02*
X291689Y343662D01*
X298011Y343662D02*
X305236Y343662D01*
X298011Y343662D02*
X298011Y359918D01*
X305236Y359918D01*
X303430Y352693D02*
X298011Y352693D01*
X311529Y359918D02*
X311529Y343662D01*
X311529Y359918D02*
X316044Y359918D01*
X316175Y359916D01*
X316307Y359910D01*
X316438Y359901D01*
X316568Y359887D01*
X316699Y359870D01*
X316828Y359849D01*
X316957Y359825D01*
X317085Y359796D01*
X317213Y359764D01*
X317339Y359728D01*
X317464Y359689D01*
X317589Y359646D01*
X317711Y359599D01*
X317833Y359549D01*
X317953Y359495D01*
X318071Y359438D01*
X318187Y359377D01*
X318302Y359313D01*
X318415Y359246D01*
X318526Y359175D01*
X318634Y359101D01*
X318741Y359024D01*
X318845Y358944D01*
X318947Y358861D01*
X319046Y358776D01*
X319143Y358687D01*
X319237Y358595D01*
X319329Y358501D01*
X319418Y358404D01*
X319503Y358305D01*
X319586Y358203D01*
X319666Y358099D01*
X319743Y357992D01*
X319817Y357884D01*
X319888Y357773D01*
X319955Y357660D01*
X320019Y357545D01*
X320080Y357429D01*
X320137Y357311D01*
X320191Y357191D01*
X320241Y357069D01*
X320288Y356947D01*
X320331Y356822D01*
X320370Y356697D01*
X320406Y356571D01*
X320438Y356443D01*
X320467Y356315D01*
X320491Y356186D01*
X320512Y356057D01*
X320529Y355926D01*
X320543Y355796D01*
X320552Y355665D01*
X320558Y355533D01*
X320560Y355402D01*
X320560Y348178D01*
X320558Y348047D01*
X320552Y347915D01*
X320543Y347784D01*
X320529Y347654D01*
X320512Y347523D01*
X320491Y347394D01*
X320467Y347265D01*
X320438Y347137D01*
X320406Y347009D01*
X320370Y346883D01*
X320331Y346758D01*
X320288Y346633D01*
X320241Y346511D01*
X320191Y346389D01*
X320137Y346269D01*
X320080Y346151D01*
X320019Y346035D01*
X319955Y345920D01*
X319888Y345807D01*
X319817Y345696D01*
X319743Y345588D01*
X319666Y345481D01*
X319586Y345377D01*
X319503Y345275D01*
X319418Y345176D01*
X319329Y345079D01*
X319237Y344985D01*
X319143Y344893D01*
X319046Y344804D01*
X318947Y344719D01*
X318845Y344636D01*
X318741Y344556D01*
X318634Y344479D01*
X318526Y344405D01*
X318415Y344334D01*
X318302Y344267D01*
X318187Y344203D01*
X318071Y344142D01*
X317953Y344085D01*
X317833Y344031D01*
X317711Y343981D01*
X317589Y343934D01*
X317464Y343891D01*
X317339Y343852D01*
X317213Y343816D01*
X317085Y343784D01*
X316957Y343755D01*
X316828Y343731D01*
X316698Y343710D01*
X316568Y343693D01*
X316438Y343679D01*
X316307Y343670D01*
X316175Y343664D01*
X316044Y343662D01*
X311529Y343662D01*
X332578Y343662D02*
X332696Y343664D01*
X332814Y343670D01*
X332932Y343679D01*
X333049Y343693D01*
X333166Y343710D01*
X333283Y343731D01*
X333398Y343756D01*
X333513Y343785D01*
X333627Y343818D01*
X333739Y343854D01*
X333850Y343894D01*
X333960Y343937D01*
X334069Y343984D01*
X334176Y344034D01*
X334281Y344089D01*
X334384Y344146D01*
X334485Y344207D01*
X334585Y344271D01*
X334682Y344338D01*
X334777Y344408D01*
X334869Y344482D01*
X334960Y344558D01*
X335047Y344638D01*
X335132Y344720D01*
X335214Y344805D01*
X335294Y344892D01*
X335370Y344983D01*
X335444Y345075D01*
X335514Y345170D01*
X335581Y345267D01*
X335645Y345367D01*
X335706Y345468D01*
X335763Y345571D01*
X335818Y345676D01*
X335868Y345783D01*
X335915Y345892D01*
X335958Y346002D01*
X335998Y346113D01*
X336034Y346225D01*
X336067Y346339D01*
X336096Y346454D01*
X336121Y346569D01*
X336142Y346686D01*
X336159Y346803D01*
X336173Y346920D01*
X336182Y347038D01*
X336188Y347156D01*
X336190Y347274D01*
X332578Y343662D02*
X332395Y343664D01*
X332213Y343671D01*
X332031Y343682D01*
X331849Y343697D01*
X331667Y343717D01*
X331486Y343740D01*
X331306Y343769D01*
X331126Y343801D01*
X330947Y343838D01*
X330770Y343879D01*
X330593Y343925D01*
X330417Y343974D01*
X330243Y344028D01*
X330069Y344086D01*
X329898Y344148D01*
X329728Y344214D01*
X329559Y344285D01*
X329392Y344359D01*
X329227Y344437D01*
X329064Y344519D01*
X328903Y344605D01*
X328744Y344695D01*
X328587Y344789D01*
X328433Y344886D01*
X328281Y344987D01*
X328131Y345092D01*
X327984Y345200D01*
X327840Y345311D01*
X327698Y345426D01*
X327559Y345545D01*
X327423Y345667D01*
X327290Y345792D01*
X327160Y345920D01*
X327612Y356306D02*
X327614Y356424D01*
X327620Y356542D01*
X327629Y356660D01*
X327643Y356777D01*
X327660Y356894D01*
X327681Y357011D01*
X327706Y357126D01*
X327735Y357241D01*
X327768Y357355D01*
X327804Y357467D01*
X327844Y357578D01*
X327887Y357688D01*
X327934Y357797D01*
X327984Y357904D01*
X328039Y358009D01*
X328096Y358112D01*
X328157Y358213D01*
X328221Y358313D01*
X328288Y358410D01*
X328358Y358505D01*
X328432Y358597D01*
X328508Y358688D01*
X328588Y358775D01*
X328670Y358860D01*
X328755Y358942D01*
X328842Y359022D01*
X328933Y359098D01*
X329025Y359172D01*
X329120Y359242D01*
X329217Y359309D01*
X329317Y359373D01*
X329418Y359434D01*
X329521Y359492D01*
X329626Y359546D01*
X329733Y359596D01*
X329842Y359643D01*
X329952Y359687D01*
X330063Y359726D01*
X330176Y359762D01*
X330289Y359795D01*
X330404Y359824D01*
X330519Y359849D01*
X330636Y359870D01*
X330753Y359887D01*
X330870Y359901D01*
X330988Y359910D01*
X331106Y359916D01*
X331224Y359918D01*
X331385Y359916D01*
X331547Y359910D01*
X331708Y359901D01*
X331869Y359887D01*
X332029Y359870D01*
X332189Y359849D01*
X332349Y359824D01*
X332508Y359795D01*
X332666Y359763D01*
X332823Y359727D01*
X332979Y359687D01*
X333135Y359643D01*
X333289Y359595D01*
X333442Y359544D01*
X333594Y359490D01*
X333745Y359431D01*
X333894Y359370D01*
X334041Y359304D01*
X334187Y359235D01*
X334332Y359163D01*
X334474Y359087D01*
X334615Y359008D01*
X334754Y358926D01*
X334890Y358840D01*
X335025Y358751D01*
X335158Y358659D01*
X335288Y358563D01*
X329417Y353145D02*
X329316Y353207D01*
X329216Y353272D01*
X329119Y353341D01*
X329024Y353413D01*
X328931Y353487D01*
X328841Y353565D01*
X328753Y353646D01*
X328668Y353729D01*
X328586Y353815D01*
X328507Y353904D01*
X328430Y353995D01*
X328357Y354089D01*
X328286Y354185D01*
X328219Y354283D01*
X328155Y354383D01*
X328094Y354486D01*
X328037Y354590D01*
X327983Y354696D01*
X327933Y354804D01*
X327886Y354913D01*
X327842Y355024D01*
X327802Y355136D01*
X327766Y355250D01*
X327734Y355364D01*
X327705Y355480D01*
X327680Y355596D01*
X327659Y355713D01*
X327642Y355831D01*
X327628Y355949D01*
X327619Y356068D01*
X327613Y356187D01*
X327611Y356306D01*
X334385Y350435D02*
X334486Y350373D01*
X334586Y350308D01*
X334683Y350239D01*
X334778Y350167D01*
X334871Y350093D01*
X334961Y350015D01*
X335049Y349934D01*
X335134Y349851D01*
X335216Y349765D01*
X335295Y349676D01*
X335372Y349585D01*
X335445Y349491D01*
X335516Y349395D01*
X335583Y349297D01*
X335647Y349197D01*
X335708Y349094D01*
X335765Y348990D01*
X335819Y348884D01*
X335869Y348776D01*
X335916Y348667D01*
X335960Y348556D01*
X336000Y348444D01*
X336036Y348330D01*
X336068Y348216D01*
X336097Y348100D01*
X336122Y347984D01*
X336143Y347867D01*
X336160Y347749D01*
X336174Y347631D01*
X336183Y347512D01*
X336189Y347393D01*
X336191Y347274D01*
X334385Y350435D02*
X329418Y353145D01*
X222081Y105918D02*
X216662Y89662D01*
X227499Y89662D02*
X222081Y105918D01*
X226145Y93726D02*
X218017Y93726D01*
X232536Y100499D02*
X236149Y89662D01*
X239761Y100499D01*
X245527Y100499D02*
X245527Y89662D01*
X245076Y105015D02*
X245076Y105918D01*
X245979Y105918D01*
X245979Y105015D01*
X245076Y105015D01*
X252336Y100499D02*
X252336Y89662D01*
X252336Y100499D02*
X256851Y100499D01*
X256955Y100497D01*
X257058Y100491D01*
X257162Y100481D01*
X257265Y100467D01*
X257367Y100449D01*
X257468Y100428D01*
X257569Y100402D01*
X257668Y100373D01*
X257767Y100340D01*
X257864Y100303D01*
X257959Y100262D01*
X258053Y100218D01*
X258145Y100170D01*
X258235Y100119D01*
X258324Y100064D01*
X258410Y100006D01*
X258493Y99944D01*
X258575Y99880D01*
X258653Y99812D01*
X258729Y99742D01*
X258803Y99669D01*
X258873Y99592D01*
X258941Y99514D01*
X259005Y99432D01*
X259067Y99349D01*
X259125Y99263D01*
X259180Y99174D01*
X259231Y99084D01*
X259279Y98992D01*
X259323Y98898D01*
X259364Y98803D01*
X259401Y98706D01*
X259434Y98607D01*
X259463Y98508D01*
X259489Y98407D01*
X259510Y98306D01*
X259528Y98204D01*
X259542Y98101D01*
X259552Y97997D01*
X259558Y97894D01*
X259560Y97790D01*
X259561Y97790D02*
X259561Y89662D01*
X269492Y95984D02*
X273556Y95984D01*
X269492Y95984D02*
X269380Y95982D01*
X269269Y95976D01*
X269158Y95966D01*
X269047Y95953D01*
X268937Y95935D01*
X268828Y95913D01*
X268719Y95888D01*
X268611Y95859D01*
X268505Y95826D01*
X268399Y95789D01*
X268295Y95749D01*
X268193Y95705D01*
X268092Y95657D01*
X267993Y95606D01*
X267895Y95551D01*
X267800Y95493D01*
X267707Y95432D01*
X267616Y95367D01*
X267527Y95299D01*
X267441Y95228D01*
X267358Y95155D01*
X267277Y95078D01*
X267198Y94998D01*
X267123Y94916D01*
X267051Y94831D01*
X266981Y94744D01*
X266915Y94654D01*
X266852Y94562D01*
X266792Y94467D01*
X266736Y94371D01*
X266683Y94273D01*
X266634Y94173D01*
X266588Y94071D01*
X266546Y93968D01*
X266507Y93863D01*
X266472Y93757D01*
X266441Y93650D01*
X266414Y93542D01*
X266390Y93433D01*
X266371Y93323D01*
X266355Y93213D01*
X266343Y93102D01*
X266335Y92990D01*
X266331Y92879D01*
X266331Y92767D01*
X266335Y92656D01*
X266343Y92544D01*
X266355Y92433D01*
X266371Y92323D01*
X266390Y92213D01*
X266414Y92104D01*
X266441Y91996D01*
X266472Y91889D01*
X266507Y91783D01*
X266546Y91678D01*
X266588Y91575D01*
X266634Y91473D01*
X266683Y91373D01*
X266736Y91275D01*
X266792Y91179D01*
X266852Y91084D01*
X266915Y90992D01*
X266981Y90902D01*
X267051Y90815D01*
X267123Y90730D01*
X267198Y90648D01*
X267277Y90568D01*
X267358Y90491D01*
X267441Y90418D01*
X267527Y90347D01*
X267616Y90279D01*
X267707Y90214D01*
X267800Y90153D01*
X267895Y90095D01*
X267993Y90040D01*
X268092Y89989D01*
X268193Y89941D01*
X268295Y89897D01*
X268399Y89857D01*
X268505Y89820D01*
X268611Y89787D01*
X268719Y89758D01*
X268828Y89733D01*
X268937Y89711D01*
X269047Y89693D01*
X269158Y89680D01*
X269269Y89670D01*
X269380Y89664D01*
X269492Y89662D01*
X273556Y89662D01*
X273556Y97790D01*
X273555Y97790D02*
X273553Y97891D01*
X273547Y97992D01*
X273538Y98093D01*
X273525Y98194D01*
X273508Y98294D01*
X273487Y98393D01*
X273463Y98491D01*
X273435Y98588D01*
X273403Y98685D01*
X273368Y98780D01*
X273329Y98873D01*
X273287Y98965D01*
X273241Y99056D01*
X273192Y99145D01*
X273140Y99231D01*
X273084Y99316D01*
X273026Y99399D01*
X272964Y99479D01*
X272899Y99557D01*
X272832Y99633D01*
X272762Y99706D01*
X272689Y99776D01*
X272613Y99843D01*
X272535Y99908D01*
X272455Y99970D01*
X272372Y100028D01*
X272287Y100084D01*
X272201Y100136D01*
X272112Y100185D01*
X272021Y100231D01*
X271929Y100273D01*
X271836Y100312D01*
X271741Y100347D01*
X271644Y100379D01*
X271547Y100407D01*
X271449Y100431D01*
X271350Y100452D01*
X271250Y100469D01*
X271149Y100482D01*
X271048Y100491D01*
X270947Y100497D01*
X270846Y100499D01*
X267234Y100499D01*
X281827Y95984D02*
X286342Y94178D01*
X281826Y95984D02*
X281738Y96021D01*
X281652Y96062D01*
X281567Y96106D01*
X281484Y96154D01*
X281404Y96205D01*
X281325Y96259D01*
X281249Y96317D01*
X281175Y96377D01*
X281103Y96441D01*
X281035Y96507D01*
X280969Y96577D01*
X280906Y96648D01*
X280845Y96723D01*
X280788Y96799D01*
X280735Y96878D01*
X280684Y96959D01*
X280637Y97042D01*
X280593Y97127D01*
X280553Y97214D01*
X280516Y97302D01*
X280483Y97392D01*
X280453Y97483D01*
X280428Y97575D01*
X280406Y97668D01*
X280388Y97762D01*
X280373Y97856D01*
X280363Y97951D01*
X280357Y98047D01*
X280354Y98142D01*
X280355Y98238D01*
X280361Y98333D01*
X280370Y98429D01*
X280383Y98523D01*
X280399Y98617D01*
X280420Y98711D01*
X280445Y98803D01*
X280473Y98894D01*
X280505Y98984D01*
X280540Y99073D01*
X280579Y99160D01*
X280622Y99246D01*
X280668Y99330D01*
X280718Y99411D01*
X280770Y99491D01*
X280826Y99569D01*
X280886Y99644D01*
X280948Y99716D01*
X281013Y99786D01*
X281081Y99854D01*
X281151Y99918D01*
X281224Y99980D01*
X281300Y100038D01*
X281378Y100094D01*
X281458Y100146D01*
X281540Y100195D01*
X281624Y100240D01*
X281710Y100282D01*
X281797Y100321D01*
X281886Y100356D01*
X281977Y100387D01*
X282068Y100414D01*
X282161Y100438D01*
X282254Y100458D01*
X282348Y100474D01*
X282443Y100486D01*
X282538Y100495D01*
X282634Y100499D01*
X282729Y100500D01*
X282976Y100493D01*
X283222Y100481D01*
X283468Y100463D01*
X283714Y100438D01*
X283958Y100408D01*
X284202Y100372D01*
X284445Y100331D01*
X284687Y100283D01*
X284928Y100229D01*
X285167Y100170D01*
X285405Y100105D01*
X285641Y100034D01*
X285876Y99958D01*
X286109Y99876D01*
X286339Y99788D01*
X286567Y99695D01*
X286794Y99597D01*
X286343Y94177D02*
X286431Y94140D01*
X286517Y94099D01*
X286602Y94055D01*
X286685Y94007D01*
X286765Y93956D01*
X286844Y93902D01*
X286920Y93844D01*
X286994Y93784D01*
X287066Y93720D01*
X287134Y93654D01*
X287200Y93584D01*
X287263Y93513D01*
X287324Y93438D01*
X287381Y93362D01*
X287434Y93283D01*
X287485Y93202D01*
X287532Y93119D01*
X287576Y93034D01*
X287616Y92947D01*
X287653Y92859D01*
X287686Y92769D01*
X287716Y92678D01*
X287741Y92586D01*
X287763Y92493D01*
X287781Y92399D01*
X287796Y92305D01*
X287806Y92210D01*
X287812Y92114D01*
X287815Y92019D01*
X287814Y91923D01*
X287808Y91828D01*
X287799Y91732D01*
X287786Y91638D01*
X287770Y91544D01*
X287749Y91450D01*
X287724Y91358D01*
X287696Y91267D01*
X287664Y91177D01*
X287629Y91088D01*
X287590Y91001D01*
X287547Y90915D01*
X287501Y90831D01*
X287451Y90750D01*
X287399Y90670D01*
X287343Y90592D01*
X287283Y90517D01*
X287221Y90445D01*
X287156Y90375D01*
X287088Y90307D01*
X287018Y90243D01*
X286945Y90181D01*
X286869Y90123D01*
X286791Y90067D01*
X286711Y90015D01*
X286629Y89966D01*
X286545Y89921D01*
X286459Y89879D01*
X286372Y89840D01*
X286283Y89805D01*
X286192Y89774D01*
X286101Y89747D01*
X286008Y89723D01*
X285915Y89703D01*
X285821Y89687D01*
X285726Y89675D01*
X285631Y89666D01*
X285535Y89662D01*
X285440Y89661D01*
X285439Y89662D02*
X285077Y89671D01*
X284715Y89689D01*
X284354Y89716D01*
X283994Y89751D01*
X283634Y89794D01*
X283275Y89846D01*
X282918Y89907D01*
X282563Y89976D01*
X282209Y90053D01*
X281857Y90139D01*
X281507Y90233D01*
X281159Y90336D01*
X280814Y90446D01*
X280472Y90565D01*
X294540Y89662D02*
X294540Y105918D01*
X294540Y100499D02*
X299056Y100499D01*
X299160Y100497D01*
X299263Y100491D01*
X299367Y100481D01*
X299470Y100467D01*
X299572Y100449D01*
X299673Y100428D01*
X299774Y100402D01*
X299873Y100373D01*
X299972Y100340D01*
X300069Y100303D01*
X300164Y100262D01*
X300258Y100218D01*
X300350Y100170D01*
X300440Y100119D01*
X300529Y100064D01*
X300615Y100006D01*
X300698Y99944D01*
X300780Y99880D01*
X300858Y99812D01*
X300934Y99742D01*
X301008Y99669D01*
X301078Y99592D01*
X301146Y99514D01*
X301210Y99432D01*
X301272Y99349D01*
X301330Y99263D01*
X301385Y99174D01*
X301436Y99084D01*
X301484Y98992D01*
X301528Y98898D01*
X301569Y98803D01*
X301606Y98706D01*
X301639Y98607D01*
X301668Y98508D01*
X301694Y98407D01*
X301715Y98306D01*
X301733Y98204D01*
X301747Y98101D01*
X301757Y97997D01*
X301763Y97894D01*
X301765Y97790D01*
X301765Y89662D01*
D11*
X384104Y191008D02*
X386701Y191008D01*
X384104Y191008D02*
X384005Y191010D01*
X383905Y191016D01*
X383806Y191025D01*
X383708Y191038D01*
X383610Y191055D01*
X383512Y191076D01*
X383416Y191101D01*
X383321Y191129D01*
X383227Y191161D01*
X383134Y191196D01*
X383042Y191235D01*
X382952Y191278D01*
X382864Y191323D01*
X382777Y191373D01*
X382693Y191425D01*
X382610Y191481D01*
X382530Y191539D01*
X382452Y191601D01*
X382377Y191666D01*
X382304Y191734D01*
X382234Y191804D01*
X382166Y191877D01*
X382101Y191952D01*
X382039Y192030D01*
X381981Y192110D01*
X381925Y192193D01*
X381873Y192277D01*
X381823Y192364D01*
X381778Y192452D01*
X381735Y192542D01*
X381696Y192634D01*
X381661Y192727D01*
X381629Y192821D01*
X381601Y192916D01*
X381576Y193012D01*
X381555Y193110D01*
X381538Y193208D01*
X381525Y193306D01*
X381516Y193405D01*
X381510Y193505D01*
X381508Y193604D01*
X381508Y200096D01*
X381510Y200195D01*
X381516Y200295D01*
X381525Y200394D01*
X381538Y200492D01*
X381555Y200590D01*
X381576Y200688D01*
X381601Y200784D01*
X381629Y200879D01*
X381661Y200973D01*
X381696Y201066D01*
X381735Y201158D01*
X381778Y201248D01*
X381823Y201336D01*
X381873Y201423D01*
X381925Y201507D01*
X381981Y201590D01*
X382039Y201670D01*
X382101Y201748D01*
X382166Y201823D01*
X382234Y201896D01*
X382304Y201966D01*
X382377Y202034D01*
X382452Y202099D01*
X382530Y202161D01*
X382610Y202219D01*
X382693Y202275D01*
X382777Y202327D01*
X382864Y202377D01*
X382952Y202422D01*
X383042Y202465D01*
X383134Y202504D01*
X383226Y202539D01*
X383321Y202571D01*
X383416Y202599D01*
X383512Y202624D01*
X383610Y202645D01*
X383708Y202662D01*
X383806Y202675D01*
X383905Y202684D01*
X384005Y202690D01*
X384104Y202692D01*
X386701Y202692D01*
X394636Y202692D02*
X394743Y202690D01*
X394849Y202684D01*
X394955Y202674D01*
X395061Y202661D01*
X395167Y202643D01*
X395271Y202622D01*
X395375Y202597D01*
X395478Y202568D01*
X395579Y202536D01*
X395679Y202499D01*
X395778Y202459D01*
X395876Y202416D01*
X395972Y202369D01*
X396066Y202318D01*
X396158Y202264D01*
X396248Y202207D01*
X396336Y202147D01*
X396421Y202083D01*
X396504Y202016D01*
X396585Y201946D01*
X396663Y201874D01*
X396739Y201798D01*
X396811Y201720D01*
X396881Y201639D01*
X396948Y201556D01*
X397012Y201471D01*
X397072Y201383D01*
X397129Y201293D01*
X397183Y201201D01*
X397234Y201107D01*
X397281Y201011D01*
X397324Y200913D01*
X397364Y200814D01*
X397401Y200714D01*
X397433Y200613D01*
X397462Y200510D01*
X397487Y200406D01*
X397508Y200302D01*
X397526Y200196D01*
X397539Y200090D01*
X397549Y199984D01*
X397555Y199878D01*
X397557Y199771D01*
X394636Y202692D02*
X394515Y202690D01*
X394394Y202684D01*
X394274Y202674D01*
X394153Y202661D01*
X394034Y202643D01*
X393914Y202622D01*
X393796Y202597D01*
X393679Y202568D01*
X393562Y202535D01*
X393447Y202499D01*
X393333Y202458D01*
X393220Y202415D01*
X393108Y202367D01*
X392999Y202316D01*
X392891Y202261D01*
X392784Y202203D01*
X392680Y202142D01*
X392578Y202077D01*
X392478Y202009D01*
X392380Y201938D01*
X392284Y201864D01*
X392191Y201787D01*
X392101Y201706D01*
X392013Y201623D01*
X391928Y201537D01*
X391845Y201448D01*
X391766Y201357D01*
X391689Y201263D01*
X391616Y201167D01*
X391546Y201069D01*
X391479Y200968D01*
X391415Y200865D01*
X391355Y200760D01*
X391298Y200653D01*
X391244Y200545D01*
X391194Y200435D01*
X391148Y200323D01*
X391105Y200210D01*
X391066Y200095D01*
X396584Y197499D02*
X396663Y197576D01*
X396739Y197657D01*
X396812Y197740D01*
X396882Y197825D01*
X396949Y197913D01*
X397013Y198003D01*
X397073Y198095D01*
X397130Y198190D01*
X397184Y198286D01*
X397235Y198384D01*
X397282Y198484D01*
X397326Y198586D01*
X397366Y198689D01*
X397402Y198793D01*
X397434Y198899D01*
X397463Y199005D01*
X397488Y199113D01*
X397510Y199221D01*
X397527Y199331D01*
X397541Y199440D01*
X397550Y199550D01*
X397556Y199661D01*
X397558Y199771D01*
X396584Y197499D02*
X391066Y191008D01*
X397557Y191008D01*
D12*
X165100Y234950D02*
X165100Y247650D01*
X165100Y196850D02*
X165100Y184150D01*
X158750Y190500D02*
X171450Y190500D01*
D10*
X165100Y172720D02*
X157480Y165100D01*
X121920Y165100D01*
X114300Y172720D01*
X114300Y259080D01*
X121920Y266700D01*
X157480Y266700D01*
X165100Y259080D01*
D13*
X165693Y214291D02*
X165693Y210735D01*
X165691Y210640D01*
X165685Y210544D01*
X165676Y210449D01*
X165662Y210355D01*
X165645Y210261D01*
X165624Y210168D01*
X165599Y210075D01*
X165571Y209984D01*
X165539Y209894D01*
X165503Y209806D01*
X165464Y209719D01*
X165421Y209633D01*
X165375Y209549D01*
X165326Y209468D01*
X165273Y209388D01*
X165217Y209311D01*
X165159Y209235D01*
X165097Y209163D01*
X165032Y209093D01*
X164964Y209025D01*
X164894Y208960D01*
X164822Y208898D01*
X164746Y208840D01*
X164669Y208784D01*
X164589Y208731D01*
X164507Y208682D01*
X164424Y208636D01*
X164338Y208593D01*
X164251Y208554D01*
X164163Y208518D01*
X164073Y208486D01*
X163982Y208458D01*
X163889Y208433D01*
X163796Y208412D01*
X163702Y208395D01*
X163608Y208381D01*
X163513Y208372D01*
X163417Y208366D01*
X163322Y208364D01*
X163322Y208365D02*
X162729Y208365D01*
X162622Y208367D01*
X162515Y208373D01*
X162409Y208382D01*
X162303Y208396D01*
X162197Y208413D01*
X162092Y208434D01*
X161988Y208459D01*
X161885Y208488D01*
X161783Y208520D01*
X161682Y208556D01*
X161583Y208596D01*
X161485Y208639D01*
X161389Y208686D01*
X161294Y208736D01*
X161201Y208789D01*
X161111Y208846D01*
X161022Y208906D01*
X160936Y208969D01*
X160852Y209035D01*
X160770Y209105D01*
X160691Y209177D01*
X160615Y209252D01*
X160541Y209330D01*
X160471Y209410D01*
X160403Y209493D01*
X160338Y209578D01*
X160277Y209665D01*
X160218Y209755D01*
X160163Y209847D01*
X160111Y209940D01*
X160063Y210036D01*
X160018Y210133D01*
X159976Y210231D01*
X159939Y210331D01*
X159904Y210433D01*
X159874Y210535D01*
X159847Y210639D01*
X159824Y210743D01*
X159805Y210849D01*
X159790Y210955D01*
X159778Y211061D01*
X159770Y211168D01*
X159766Y211275D01*
X159766Y211381D01*
X159770Y211488D01*
X159778Y211595D01*
X159790Y211701D01*
X159805Y211807D01*
X159824Y211913D01*
X159847Y212017D01*
X159874Y212121D01*
X159904Y212223D01*
X159939Y212325D01*
X159976Y212425D01*
X160018Y212523D01*
X160063Y212620D01*
X160111Y212716D01*
X160163Y212810D01*
X160218Y212901D01*
X160277Y212991D01*
X160338Y213078D01*
X160403Y213163D01*
X160471Y213246D01*
X160541Y213326D01*
X160615Y213404D01*
X160691Y213479D01*
X160770Y213551D01*
X160852Y213621D01*
X160936Y213687D01*
X161022Y213750D01*
X161111Y213810D01*
X161201Y213867D01*
X161294Y213920D01*
X161389Y213970D01*
X161485Y214017D01*
X161583Y214060D01*
X161682Y214100D01*
X161783Y214136D01*
X161885Y214168D01*
X161988Y214197D01*
X162092Y214222D01*
X162197Y214243D01*
X162303Y214260D01*
X162409Y214274D01*
X162515Y214283D01*
X162622Y214289D01*
X162729Y214291D01*
X165693Y214291D01*
X165828Y214289D01*
X165964Y214283D01*
X166099Y214274D01*
X166233Y214260D01*
X166368Y214243D01*
X166501Y214222D01*
X166635Y214197D01*
X166767Y214168D01*
X166898Y214135D01*
X167029Y214099D01*
X167158Y214059D01*
X167286Y214015D01*
X167413Y213968D01*
X167539Y213917D01*
X167662Y213863D01*
X167785Y213805D01*
X167905Y213743D01*
X168024Y213678D01*
X168141Y213610D01*
X168256Y213538D01*
X168369Y213464D01*
X168480Y213386D01*
X168588Y213304D01*
X168694Y213220D01*
X168798Y213133D01*
X168899Y213043D01*
X168997Y212950D01*
X169093Y212854D01*
X169186Y212756D01*
X169276Y212655D01*
X169363Y212551D01*
X169447Y212445D01*
X169529Y212337D01*
X169607Y212226D01*
X169681Y212113D01*
X169753Y211998D01*
X169821Y211881D01*
X169886Y211762D01*
X169948Y211642D01*
X170006Y211519D01*
X170060Y211396D01*
X170111Y211270D01*
X170158Y211143D01*
X170202Y211015D01*
X170242Y210886D01*
X170278Y210755D01*
X170311Y210624D01*
X170340Y210492D01*
X170365Y210358D01*
X170386Y210225D01*
X170403Y210090D01*
X170417Y209956D01*
X170426Y209821D01*
X170432Y209685D01*
X170434Y209550D01*
X170434Y222758D02*
X159766Y219202D01*
X159766Y226314D02*
X170434Y222758D01*
D14*
X94615Y165354D02*
X94615Y163449D01*
X94615Y165354D02*
X100965Y165354D01*
X100965Y161544D01*
X100963Y161444D01*
X100957Y161345D01*
X100947Y161245D01*
X100934Y161147D01*
X100916Y161048D01*
X100895Y160951D01*
X100870Y160855D01*
X100841Y160759D01*
X100808Y160665D01*
X100772Y160572D01*
X100732Y160481D01*
X100688Y160391D01*
X100641Y160303D01*
X100591Y160217D01*
X100537Y160133D01*
X100480Y160051D01*
X100420Y159972D01*
X100356Y159894D01*
X100290Y159820D01*
X100221Y159748D01*
X100149Y159679D01*
X100075Y159613D01*
X99997Y159549D01*
X99918Y159489D01*
X99836Y159432D01*
X99752Y159378D01*
X99666Y159328D01*
X99578Y159281D01*
X99488Y159237D01*
X99397Y159197D01*
X99304Y159161D01*
X99210Y159128D01*
X99114Y159099D01*
X99018Y159074D01*
X98921Y159053D01*
X98822Y159035D01*
X98724Y159022D01*
X98624Y159012D01*
X98525Y159006D01*
X98425Y159004D01*
X92075Y159004D01*
X91975Y159006D01*
X91876Y159012D01*
X91776Y159022D01*
X91678Y159035D01*
X91579Y159053D01*
X91482Y159074D01*
X91386Y159099D01*
X91290Y159128D01*
X91196Y159161D01*
X91103Y159197D01*
X91012Y159237D01*
X90922Y159281D01*
X90834Y159328D01*
X90748Y159378D01*
X90664Y159432D01*
X90582Y159489D01*
X90503Y159549D01*
X90425Y159613D01*
X90351Y159679D01*
X90279Y159748D01*
X90210Y159820D01*
X90144Y159894D01*
X90080Y159972D01*
X90020Y160051D01*
X89963Y160133D01*
X89909Y160217D01*
X89859Y160303D01*
X89812Y160391D01*
X89768Y160481D01*
X89728Y160572D01*
X89692Y160665D01*
X89659Y160759D01*
X89630Y160855D01*
X89605Y160951D01*
X89584Y161048D01*
X89566Y161147D01*
X89553Y161245D01*
X89543Y161345D01*
X89537Y161444D01*
X89535Y161544D01*
X89535Y165354D01*
X92075Y170815D02*
X89535Y173990D01*
X100965Y173990D01*
X100965Y170815D02*
X100965Y177165D01*
D10*
X321310Y165100D02*
X321310Y266700D01*
X262890Y266700D02*
X262890Y165100D01*
X321310Y165100D01*
X321310Y266700D02*
X302260Y266700D01*
X281940Y266700D02*
X262890Y266700D01*
X281940Y266700D02*
X281943Y266453D01*
X281952Y266205D01*
X281967Y265958D01*
X281988Y265712D01*
X282015Y265466D01*
X282048Y265221D01*
X282087Y264976D01*
X282132Y264733D01*
X282183Y264491D01*
X282240Y264250D01*
X282302Y264011D01*
X282371Y263773D01*
X282445Y263537D01*
X282525Y263303D01*
X282610Y263071D01*
X282702Y262841D01*
X282798Y262613D01*
X282901Y262388D01*
X283008Y262165D01*
X283122Y261945D01*
X283240Y261728D01*
X283364Y261513D01*
X283493Y261302D01*
X283627Y261094D01*
X283766Y260889D01*
X283910Y260688D01*
X284058Y260490D01*
X284212Y260296D01*
X284370Y260106D01*
X284533Y259920D01*
X284700Y259738D01*
X284872Y259560D01*
X285048Y259386D01*
X285228Y259216D01*
X285413Y259051D01*
X285601Y258891D01*
X285793Y258735D01*
X285989Y258583D01*
X286188Y258437D01*
X286391Y258295D01*
X286598Y258159D01*
X286807Y258027D01*
X287020Y257901D01*
X287236Y257780D01*
X287454Y257664D01*
X287676Y257554D01*
X287900Y257449D01*
X288126Y257349D01*
X288355Y257255D01*
X288586Y257167D01*
X288820Y257084D01*
X289055Y257007D01*
X289292Y256936D01*
X289530Y256870D01*
X289770Y256811D01*
X290012Y256757D01*
X290255Y256709D01*
X290498Y256667D01*
X290743Y256631D01*
X290989Y256601D01*
X291235Y256577D01*
X291482Y256559D01*
X291729Y256547D01*
X291976Y256541D01*
X292224Y256541D01*
X292471Y256547D01*
X292718Y256559D01*
X292965Y256577D01*
X293211Y256601D01*
X293457Y256631D01*
X293702Y256667D01*
X293945Y256709D01*
X294188Y256757D01*
X294430Y256811D01*
X294670Y256870D01*
X294908Y256936D01*
X295145Y257007D01*
X295380Y257084D01*
X295614Y257167D01*
X295845Y257255D01*
X296074Y257349D01*
X296300Y257449D01*
X296524Y257554D01*
X296746Y257664D01*
X296964Y257780D01*
X297180Y257901D01*
X297393Y258027D01*
X297602Y258159D01*
X297809Y258295D01*
X298012Y258437D01*
X298211Y258583D01*
X298407Y258735D01*
X298599Y258891D01*
X298787Y259051D01*
X298972Y259216D01*
X299152Y259386D01*
X299328Y259560D01*
X299500Y259738D01*
X299667Y259920D01*
X299830Y260106D01*
X299988Y260296D01*
X300142Y260490D01*
X300290Y260688D01*
X300434Y260889D01*
X300573Y261094D01*
X300707Y261302D01*
X300836Y261513D01*
X300960Y261728D01*
X301078Y261945D01*
X301192Y262165D01*
X301299Y262388D01*
X301402Y262613D01*
X301498Y262841D01*
X301590Y263071D01*
X301675Y263303D01*
X301755Y263537D01*
X301829Y263773D01*
X301898Y264011D01*
X301960Y264250D01*
X302017Y264491D01*
X302068Y264733D01*
X302113Y264976D01*
X302152Y265221D01*
X302185Y265466D01*
X302212Y265712D01*
X302233Y265958D01*
X302248Y266205D01*
X302257Y266453D01*
X302260Y266700D01*
D14*
X264795Y269875D02*
X264795Y281305D01*
X263525Y269875D02*
X266065Y269875D01*
X266065Y281305D02*
X263525Y281305D01*
X273267Y269875D02*
X275807Y269875D01*
X273267Y269875D02*
X273167Y269877D01*
X273068Y269883D01*
X272968Y269893D01*
X272870Y269906D01*
X272771Y269924D01*
X272674Y269945D01*
X272578Y269970D01*
X272482Y269999D01*
X272388Y270032D01*
X272295Y270068D01*
X272204Y270108D01*
X272114Y270152D01*
X272026Y270199D01*
X271940Y270249D01*
X271856Y270303D01*
X271774Y270360D01*
X271695Y270420D01*
X271617Y270484D01*
X271543Y270550D01*
X271471Y270619D01*
X271402Y270691D01*
X271336Y270765D01*
X271272Y270843D01*
X271212Y270922D01*
X271155Y271004D01*
X271101Y271088D01*
X271051Y271174D01*
X271004Y271262D01*
X270960Y271352D01*
X270920Y271443D01*
X270884Y271536D01*
X270851Y271630D01*
X270822Y271726D01*
X270797Y271822D01*
X270776Y271919D01*
X270758Y272018D01*
X270745Y272116D01*
X270735Y272216D01*
X270729Y272315D01*
X270727Y272415D01*
X270727Y278765D01*
X270729Y278865D01*
X270735Y278964D01*
X270745Y279064D01*
X270758Y279162D01*
X270776Y279261D01*
X270797Y279358D01*
X270822Y279454D01*
X270851Y279550D01*
X270884Y279644D01*
X270920Y279737D01*
X270960Y279828D01*
X271004Y279918D01*
X271051Y280006D01*
X271101Y280092D01*
X271155Y280176D01*
X271212Y280258D01*
X271272Y280337D01*
X271336Y280415D01*
X271402Y280489D01*
X271471Y280561D01*
X271543Y280630D01*
X271617Y280696D01*
X271695Y280760D01*
X271774Y280820D01*
X271856Y280877D01*
X271940Y280931D01*
X272026Y280981D01*
X272114Y281028D01*
X272204Y281072D01*
X272295Y281112D01*
X272388Y281148D01*
X272482Y281181D01*
X272578Y281210D01*
X272674Y281235D01*
X272771Y281256D01*
X272870Y281274D01*
X272968Y281287D01*
X273068Y281297D01*
X273167Y281303D01*
X273267Y281305D01*
X275807Y281305D01*
X280289Y278765D02*
X283464Y281305D01*
X283464Y269875D01*
X280289Y269875D02*
X286639Y269875D01*
D13*
X222250Y114300D02*
X184150Y114300D01*
D12*
X183534Y114774D01*
X182929Y115263D01*
X182337Y115767D01*
X181757Y116285D01*
X181190Y116817D01*
X180636Y117363D01*
X180096Y117922D01*
X179570Y118495D01*
X179057Y119080D01*
X178560Y119677D01*
X178077Y120286D01*
X177609Y120907D01*
X177156Y121540D01*
X176719Y122183D01*
X176298Y122837D01*
X175894Y123501D01*
X175505Y124174D01*
X175133Y124857D01*
X174778Y125549D01*
X174440Y126249D01*
X174119Y126957D01*
X173816Y127673D01*
X173530Y128397D01*
X173262Y129126D01*
X173012Y129863D01*
X172781Y130605D01*
X172567Y131353D01*
X172372Y132105D01*
X172195Y132863D01*
X172037Y133624D01*
X171897Y134389D01*
X171777Y135157D01*
X171675Y135928D01*
X171592Y136701D01*
X171528Y137476D01*
X171483Y138252D01*
X171457Y139029D01*
X171450Y139807D01*
X171462Y140584D01*
X171493Y141361D01*
X171544Y142137D01*
X171613Y142912D01*
X171701Y143684D01*
X171808Y144454D01*
X171934Y145222D01*
X172078Y145986D01*
X172242Y146746D01*
X172424Y147502D01*
X172624Y148253D01*
X172842Y149000D01*
X173079Y149740D01*
X173334Y150475D01*
X173607Y151203D01*
X173898Y151924D01*
X174206Y152638D01*
X174531Y153344D01*
X174874Y154042D01*
X175234Y154732D01*
X175610Y155412D01*
X176003Y156083D01*
X176413Y156744D01*
X176838Y157395D01*
X177279Y158035D01*
X177736Y158664D01*
X178208Y159282D01*
X178695Y159888D01*
X179197Y160482D01*
X179713Y161064D01*
X180243Y161633D01*
X180787Y162188D01*
X181345Y162731D01*
X181915Y163259D01*
X182498Y163773D01*
X183094Y164273D01*
X183702Y164758D01*
X184321Y165228D01*
X184952Y165682D01*
X185594Y166121D01*
X186246Y166545D01*
X186909Y166952D01*
X187581Y167343D01*
X188263Y167717D01*
X188953Y168074D01*
X189652Y168414D01*
X190360Y168738D01*
X191074Y169043D01*
X191797Y169332D01*
X192526Y169602D01*
X193261Y169854D01*
X194003Y170089D01*
X194750Y170305D01*
X195502Y170503D01*
X196258Y170682D01*
X197019Y170843D01*
X197783Y170985D01*
X198551Y171108D01*
X199322Y171212D01*
X200095Y171298D01*
X200869Y171364D01*
X201645Y171412D01*
X202422Y171440D01*
X203200Y171450D01*
X203978Y171440D01*
X204755Y171412D01*
X205531Y171364D01*
X206305Y171298D01*
X207078Y171212D01*
X207849Y171108D01*
X208617Y170985D01*
X209381Y170843D01*
X210142Y170682D01*
X210898Y170503D01*
X211650Y170305D01*
X212397Y170089D01*
X213139Y169854D01*
X213874Y169602D01*
X214603Y169332D01*
X215326Y169043D01*
X216040Y168738D01*
X216748Y168414D01*
X217447Y168074D01*
X218137Y167717D01*
X218819Y167343D01*
X219491Y166952D01*
X220154Y166545D01*
X220806Y166121D01*
X221448Y165682D01*
X222079Y165228D01*
X222698Y164758D01*
X223306Y164273D01*
X223902Y163773D01*
X224485Y163259D01*
X225055Y162731D01*
X225613Y162188D01*
X226157Y161633D01*
X226687Y161064D01*
X227203Y160482D01*
X227705Y159888D01*
X228192Y159282D01*
X228664Y158664D01*
X229121Y158035D01*
X229562Y157395D01*
X229987Y156744D01*
X230397Y156083D01*
X230790Y155412D01*
X231166Y154732D01*
X231526Y154042D01*
X231869Y153344D01*
X232194Y152638D01*
X232502Y151924D01*
X232793Y151203D01*
X233066Y150475D01*
X233321Y149740D01*
X233558Y149000D01*
X233776Y148253D01*
X233976Y147502D01*
X234158Y146746D01*
X234322Y145986D01*
X234466Y145222D01*
X234592Y144454D01*
X234699Y143684D01*
X234787Y142912D01*
X234856Y142137D01*
X234907Y141361D01*
X234938Y140584D01*
X234950Y139807D01*
X234943Y139029D01*
X234917Y138252D01*
X234872Y137476D01*
X234808Y136701D01*
X234725Y135928D01*
X234623Y135157D01*
X234503Y134389D01*
X234363Y133624D01*
X234205Y132863D01*
X234028Y132105D01*
X233833Y131353D01*
X233619Y130605D01*
X233388Y129863D01*
X233138Y129126D01*
X232870Y128397D01*
X232584Y127673D01*
X232281Y126957D01*
X231960Y126249D01*
X231622Y125549D01*
X231267Y124857D01*
X230895Y124174D01*
X230506Y123501D01*
X230102Y122837D01*
X229681Y122183D01*
X229244Y121540D01*
X228791Y120907D01*
X228323Y120286D01*
X227840Y119677D01*
X227343Y119080D01*
X226830Y118495D01*
X226304Y117922D01*
X225764Y117363D01*
X225210Y116817D01*
X224643Y116285D01*
X224063Y115767D01*
X223471Y115263D01*
X222866Y114774D01*
X222250Y114300D01*
D10*
X177800Y139700D02*
X177808Y140323D01*
X177831Y140946D01*
X177869Y141569D01*
X177922Y142190D01*
X177991Y142809D01*
X178075Y143427D01*
X178174Y144042D01*
X178288Y144655D01*
X178417Y145265D01*
X178561Y145872D01*
X178720Y146475D01*
X178894Y147073D01*
X179082Y147668D01*
X179285Y148257D01*
X179502Y148841D01*
X179733Y149420D01*
X179979Y149993D01*
X180239Y150560D01*
X180512Y151120D01*
X180799Y151673D01*
X181100Y152220D01*
X181414Y152758D01*
X181741Y153289D01*
X182081Y153811D01*
X182433Y154326D01*
X182799Y154831D01*
X183176Y155327D01*
X183566Y155814D01*
X183967Y156291D01*
X184380Y156758D01*
X184804Y157214D01*
X185239Y157661D01*
X185686Y158096D01*
X186142Y158520D01*
X186609Y158933D01*
X187086Y159334D01*
X187573Y159724D01*
X188069Y160101D01*
X188574Y160467D01*
X189089Y160819D01*
X189611Y161159D01*
X190142Y161486D01*
X190680Y161800D01*
X191227Y162101D01*
X191780Y162388D01*
X192340Y162661D01*
X192907Y162921D01*
X193480Y163167D01*
X194059Y163398D01*
X194643Y163615D01*
X195232Y163818D01*
X195827Y164006D01*
X196425Y164180D01*
X197028Y164339D01*
X197635Y164483D01*
X198245Y164612D01*
X198858Y164726D01*
X199473Y164825D01*
X200091Y164909D01*
X200710Y164978D01*
X201331Y165031D01*
X201954Y165069D01*
X202577Y165092D01*
X203200Y165100D01*
X203823Y165092D01*
X204446Y165069D01*
X205069Y165031D01*
X205690Y164978D01*
X206309Y164909D01*
X206927Y164825D01*
X207542Y164726D01*
X208155Y164612D01*
X208765Y164483D01*
X209372Y164339D01*
X209975Y164180D01*
X210573Y164006D01*
X211168Y163818D01*
X211757Y163615D01*
X212341Y163398D01*
X212920Y163167D01*
X213493Y162921D01*
X214060Y162661D01*
X214620Y162388D01*
X215173Y162101D01*
X215720Y161800D01*
X216258Y161486D01*
X216789Y161159D01*
X217311Y160819D01*
X217826Y160467D01*
X218331Y160101D01*
X218827Y159724D01*
X219314Y159334D01*
X219791Y158933D01*
X220258Y158520D01*
X220714Y158096D01*
X221161Y157661D01*
X221596Y157214D01*
X222020Y156758D01*
X222433Y156291D01*
X222834Y155814D01*
X223224Y155327D01*
X223601Y154831D01*
X223967Y154326D01*
X224319Y153811D01*
X224659Y153289D01*
X224986Y152758D01*
X225300Y152220D01*
X225601Y151673D01*
X225888Y151120D01*
X226161Y150560D01*
X226421Y149993D01*
X226667Y149420D01*
X226898Y148841D01*
X227115Y148257D01*
X227318Y147668D01*
X227506Y147073D01*
X227680Y146475D01*
X227839Y145872D01*
X227983Y145265D01*
X228112Y144655D01*
X228226Y144042D01*
X228325Y143427D01*
X228409Y142809D01*
X228478Y142190D01*
X228531Y141569D01*
X228569Y140946D01*
X228592Y140323D01*
X228600Y139700D01*
X228592Y139077D01*
X228569Y138454D01*
X228531Y137831D01*
X228478Y137210D01*
X228409Y136591D01*
X228325Y135973D01*
X228226Y135358D01*
X228112Y134745D01*
X227983Y134135D01*
X227839Y133528D01*
X227680Y132925D01*
X227506Y132327D01*
X227318Y131732D01*
X227115Y131143D01*
X226898Y130559D01*
X226667Y129980D01*
X226421Y129407D01*
X226161Y128840D01*
X225888Y128280D01*
X225601Y127727D01*
X225300Y127180D01*
X224986Y126642D01*
X224659Y126111D01*
X224319Y125589D01*
X223967Y125074D01*
X223601Y124569D01*
X223224Y124073D01*
X222834Y123586D01*
X222433Y123109D01*
X222020Y122642D01*
X221596Y122186D01*
X221161Y121739D01*
X220714Y121304D01*
X220258Y120880D01*
X219791Y120467D01*
X219314Y120066D01*
X218827Y119676D01*
X218331Y119299D01*
X217826Y118933D01*
X217311Y118581D01*
X216789Y118241D01*
X216258Y117914D01*
X215720Y117600D01*
X215173Y117299D01*
X214620Y117012D01*
X214060Y116739D01*
X213493Y116479D01*
X212920Y116233D01*
X212341Y116002D01*
X211757Y115785D01*
X211168Y115582D01*
X210573Y115394D01*
X209975Y115220D01*
X209372Y115061D01*
X208765Y114917D01*
X208155Y114788D01*
X207542Y114674D01*
X206927Y114575D01*
X206309Y114491D01*
X205690Y114422D01*
X205069Y114369D01*
X204446Y114331D01*
X203823Y114308D01*
X203200Y114300D01*
X202577Y114308D01*
X201954Y114331D01*
X201331Y114369D01*
X200710Y114422D01*
X200091Y114491D01*
X199473Y114575D01*
X198858Y114674D01*
X198245Y114788D01*
X197635Y114917D01*
X197028Y115061D01*
X196425Y115220D01*
X195827Y115394D01*
X195232Y115582D01*
X194643Y115785D01*
X194059Y116002D01*
X193480Y116233D01*
X192907Y116479D01*
X192340Y116739D01*
X191780Y117012D01*
X191227Y117299D01*
X190680Y117600D01*
X190142Y117914D01*
X189611Y118241D01*
X189089Y118581D01*
X188574Y118933D01*
X188069Y119299D01*
X187573Y119676D01*
X187086Y120066D01*
X186609Y120467D01*
X186142Y120880D01*
X185686Y121304D01*
X185239Y121739D01*
X184804Y122186D01*
X184380Y122642D01*
X183967Y123109D01*
X183566Y123586D01*
X183176Y124073D01*
X182799Y124569D01*
X182433Y125074D01*
X182081Y125589D01*
X181741Y126111D01*
X181414Y126642D01*
X181100Y127180D01*
X180799Y127727D01*
X180512Y128280D01*
X180239Y128840D01*
X179979Y129407D01*
X179733Y129980D01*
X179502Y130559D01*
X179285Y131143D01*
X179082Y131732D01*
X178894Y132327D01*
X178720Y132925D01*
X178561Y133528D01*
X178417Y134135D01*
X178288Y134745D01*
X178174Y135358D01*
X178075Y135973D01*
X177991Y136591D01*
X177922Y137210D01*
X177869Y137831D01*
X177831Y138454D01*
X177808Y139077D01*
X177800Y139700D01*
D14*
X247269Y120167D02*
X258699Y120167D01*
X258699Y125247D01*
X258699Y130073D02*
X258699Y135153D01*
X258699Y130073D02*
X247269Y130073D01*
X247269Y135153D01*
X252349Y133883D02*
X252349Y130073D01*
X247269Y139954D02*
X258699Y139954D01*
X247269Y139954D02*
X247269Y143129D01*
X247271Y143240D01*
X247277Y143350D01*
X247286Y143461D01*
X247300Y143571D01*
X247317Y143680D01*
X247338Y143789D01*
X247363Y143897D01*
X247392Y144004D01*
X247424Y144110D01*
X247460Y144215D01*
X247500Y144318D01*
X247543Y144420D01*
X247590Y144521D01*
X247641Y144620D01*
X247694Y144717D01*
X247751Y144811D01*
X247812Y144904D01*
X247875Y144995D01*
X247942Y145084D01*
X248012Y145170D01*
X248085Y145253D01*
X248160Y145335D01*
X248238Y145413D01*
X248320Y145488D01*
X248403Y145561D01*
X248489Y145631D01*
X248578Y145698D01*
X248669Y145761D01*
X248762Y145822D01*
X248857Y145879D01*
X248953Y145932D01*
X249052Y145983D01*
X249153Y146030D01*
X249255Y146073D01*
X249358Y146113D01*
X249463Y146149D01*
X249569Y146181D01*
X249676Y146210D01*
X249784Y146235D01*
X249893Y146256D01*
X250002Y146273D01*
X250112Y146287D01*
X250223Y146296D01*
X250333Y146302D01*
X250444Y146304D01*
X255524Y146304D01*
X255635Y146302D01*
X255745Y146296D01*
X255856Y146287D01*
X255966Y146273D01*
X256075Y146256D01*
X256184Y146235D01*
X256292Y146210D01*
X256399Y146181D01*
X256505Y146149D01*
X256610Y146113D01*
X256713Y146073D01*
X256815Y146030D01*
X256916Y145983D01*
X257015Y145932D01*
X257112Y145879D01*
X257206Y145822D01*
X257299Y145761D01*
X257390Y145698D01*
X257479Y145631D01*
X257565Y145561D01*
X257648Y145488D01*
X257730Y145413D01*
X257808Y145335D01*
X257883Y145253D01*
X257956Y145170D01*
X258026Y145084D01*
X258093Y144995D01*
X258156Y144904D01*
X258217Y144811D01*
X258274Y144717D01*
X258327Y144620D01*
X258378Y144521D01*
X258425Y144420D01*
X258468Y144318D01*
X258508Y144215D01*
X258544Y144110D01*
X258576Y144004D01*
X258605Y143897D01*
X258630Y143789D01*
X258651Y143680D01*
X258668Y143571D01*
X258682Y143461D01*
X258691Y143350D01*
X258697Y143240D01*
X258699Y143129D01*
X258699Y139954D01*
X249809Y151765D02*
X247269Y154940D01*
X258699Y154940D01*
X258699Y151765D02*
X258699Y158115D01*
D13*
X209550Y266700D02*
X171450Y266700D01*
D12*
X170834Y267174D01*
X170229Y267663D01*
X169637Y268167D01*
X169057Y268685D01*
X168490Y269217D01*
X167936Y269763D01*
X167396Y270322D01*
X166870Y270895D01*
X166357Y271480D01*
X165860Y272077D01*
X165377Y272686D01*
X164909Y273307D01*
X164456Y273940D01*
X164019Y274583D01*
X163598Y275237D01*
X163194Y275901D01*
X162805Y276574D01*
X162433Y277257D01*
X162078Y277949D01*
X161740Y278649D01*
X161419Y279357D01*
X161116Y280073D01*
X160830Y280797D01*
X160562Y281526D01*
X160312Y282263D01*
X160081Y283005D01*
X159867Y283753D01*
X159672Y284505D01*
X159495Y285263D01*
X159337Y286024D01*
X159197Y286789D01*
X159077Y287557D01*
X158975Y288328D01*
X158892Y289101D01*
X158828Y289876D01*
X158783Y290652D01*
X158757Y291429D01*
X158750Y292207D01*
X158762Y292984D01*
X158793Y293761D01*
X158844Y294537D01*
X158913Y295312D01*
X159001Y296084D01*
X159108Y296854D01*
X159234Y297622D01*
X159378Y298386D01*
X159542Y299146D01*
X159724Y299902D01*
X159924Y300653D01*
X160142Y301400D01*
X160379Y302140D01*
X160634Y302875D01*
X160907Y303603D01*
X161198Y304324D01*
X161506Y305038D01*
X161831Y305744D01*
X162174Y306442D01*
X162534Y307132D01*
X162910Y307812D01*
X163303Y308483D01*
X163713Y309144D01*
X164138Y309795D01*
X164579Y310435D01*
X165036Y311064D01*
X165508Y311682D01*
X165995Y312288D01*
X166497Y312882D01*
X167013Y313464D01*
X167543Y314033D01*
X168087Y314588D01*
X168645Y315131D01*
X169215Y315659D01*
X169798Y316173D01*
X170394Y316673D01*
X171002Y317158D01*
X171621Y317628D01*
X172252Y318082D01*
X172894Y318521D01*
X173546Y318945D01*
X174209Y319352D01*
X174881Y319743D01*
X175563Y320117D01*
X176253Y320474D01*
X176952Y320814D01*
X177660Y321138D01*
X178374Y321443D01*
X179097Y321732D01*
X179826Y322002D01*
X180561Y322254D01*
X181303Y322489D01*
X182050Y322705D01*
X182802Y322903D01*
X183558Y323082D01*
X184319Y323243D01*
X185083Y323385D01*
X185851Y323508D01*
X186622Y323612D01*
X187395Y323698D01*
X188169Y323764D01*
X188945Y323812D01*
X189722Y323840D01*
X190500Y323850D01*
X191278Y323840D01*
X192055Y323812D01*
X192831Y323764D01*
X193605Y323698D01*
X194378Y323612D01*
X195149Y323508D01*
X195917Y323385D01*
X196681Y323243D01*
X197442Y323082D01*
X198198Y322903D01*
X198950Y322705D01*
X199697Y322489D01*
X200439Y322254D01*
X201174Y322002D01*
X201903Y321732D01*
X202626Y321443D01*
X203340Y321138D01*
X204048Y320814D01*
X204747Y320474D01*
X205437Y320117D01*
X206119Y319743D01*
X206791Y319352D01*
X207454Y318945D01*
X208106Y318521D01*
X208748Y318082D01*
X209379Y317628D01*
X209998Y317158D01*
X210606Y316673D01*
X211202Y316173D01*
X211785Y315659D01*
X212355Y315131D01*
X212913Y314588D01*
X213457Y314033D01*
X213987Y313464D01*
X214503Y312882D01*
X215005Y312288D01*
X215492Y311682D01*
X215964Y311064D01*
X216421Y310435D01*
X216862Y309795D01*
X217287Y309144D01*
X217697Y308483D01*
X218090Y307812D01*
X218466Y307132D01*
X218826Y306442D01*
X219169Y305744D01*
X219494Y305038D01*
X219802Y304324D01*
X220093Y303603D01*
X220366Y302875D01*
X220621Y302140D01*
X220858Y301400D01*
X221076Y300653D01*
X221276Y299902D01*
X221458Y299146D01*
X221622Y298386D01*
X221766Y297622D01*
X221892Y296854D01*
X221999Y296084D01*
X222087Y295312D01*
X222156Y294537D01*
X222207Y293761D01*
X222238Y292984D01*
X222250Y292207D01*
X222243Y291429D01*
X222217Y290652D01*
X222172Y289876D01*
X222108Y289101D01*
X222025Y288328D01*
X221923Y287557D01*
X221803Y286789D01*
X221663Y286024D01*
X221505Y285263D01*
X221328Y284505D01*
X221133Y283753D01*
X220919Y283005D01*
X220688Y282263D01*
X220438Y281526D01*
X220170Y280797D01*
X219884Y280073D01*
X219581Y279357D01*
X219260Y278649D01*
X218922Y277949D01*
X218567Y277257D01*
X218195Y276574D01*
X217806Y275901D01*
X217402Y275237D01*
X216981Y274583D01*
X216544Y273940D01*
X216091Y273307D01*
X215623Y272686D01*
X215140Y272077D01*
X214643Y271480D01*
X214130Y270895D01*
X213604Y270322D01*
X213064Y269763D01*
X212510Y269217D01*
X211943Y268685D01*
X211363Y268167D01*
X210771Y267663D01*
X210166Y267174D01*
X209550Y266700D01*
D10*
X165100Y292100D02*
X165108Y292723D01*
X165131Y293346D01*
X165169Y293969D01*
X165222Y294590D01*
X165291Y295209D01*
X165375Y295827D01*
X165474Y296442D01*
X165588Y297055D01*
X165717Y297665D01*
X165861Y298272D01*
X166020Y298875D01*
X166194Y299473D01*
X166382Y300068D01*
X166585Y300657D01*
X166802Y301241D01*
X167033Y301820D01*
X167279Y302393D01*
X167539Y302960D01*
X167812Y303520D01*
X168099Y304073D01*
X168400Y304620D01*
X168714Y305158D01*
X169041Y305689D01*
X169381Y306211D01*
X169733Y306726D01*
X170099Y307231D01*
X170476Y307727D01*
X170866Y308214D01*
X171267Y308691D01*
X171680Y309158D01*
X172104Y309614D01*
X172539Y310061D01*
X172986Y310496D01*
X173442Y310920D01*
X173909Y311333D01*
X174386Y311734D01*
X174873Y312124D01*
X175369Y312501D01*
X175874Y312867D01*
X176389Y313219D01*
X176911Y313559D01*
X177442Y313886D01*
X177980Y314200D01*
X178527Y314501D01*
X179080Y314788D01*
X179640Y315061D01*
X180207Y315321D01*
X180780Y315567D01*
X181359Y315798D01*
X181943Y316015D01*
X182532Y316218D01*
X183127Y316406D01*
X183725Y316580D01*
X184328Y316739D01*
X184935Y316883D01*
X185545Y317012D01*
X186158Y317126D01*
X186773Y317225D01*
X187391Y317309D01*
X188010Y317378D01*
X188631Y317431D01*
X189254Y317469D01*
X189877Y317492D01*
X190500Y317500D01*
X191123Y317492D01*
X191746Y317469D01*
X192369Y317431D01*
X192990Y317378D01*
X193609Y317309D01*
X194227Y317225D01*
X194842Y317126D01*
X195455Y317012D01*
X196065Y316883D01*
X196672Y316739D01*
X197275Y316580D01*
X197873Y316406D01*
X198468Y316218D01*
X199057Y316015D01*
X199641Y315798D01*
X200220Y315567D01*
X200793Y315321D01*
X201360Y315061D01*
X201920Y314788D01*
X202473Y314501D01*
X203020Y314200D01*
X203558Y313886D01*
X204089Y313559D01*
X204611Y313219D01*
X205126Y312867D01*
X205631Y312501D01*
X206127Y312124D01*
X206614Y311734D01*
X207091Y311333D01*
X207558Y310920D01*
X208014Y310496D01*
X208461Y310061D01*
X208896Y309614D01*
X209320Y309158D01*
X209733Y308691D01*
X210134Y308214D01*
X210524Y307727D01*
X210901Y307231D01*
X211267Y306726D01*
X211619Y306211D01*
X211959Y305689D01*
X212286Y305158D01*
X212600Y304620D01*
X212901Y304073D01*
X213188Y303520D01*
X213461Y302960D01*
X213721Y302393D01*
X213967Y301820D01*
X214198Y301241D01*
X214415Y300657D01*
X214618Y300068D01*
X214806Y299473D01*
X214980Y298875D01*
X215139Y298272D01*
X215283Y297665D01*
X215412Y297055D01*
X215526Y296442D01*
X215625Y295827D01*
X215709Y295209D01*
X215778Y294590D01*
X215831Y293969D01*
X215869Y293346D01*
X215892Y292723D01*
X215900Y292100D01*
X215892Y291477D01*
X215869Y290854D01*
X215831Y290231D01*
X215778Y289610D01*
X215709Y288991D01*
X215625Y288373D01*
X215526Y287758D01*
X215412Y287145D01*
X215283Y286535D01*
X215139Y285928D01*
X214980Y285325D01*
X214806Y284727D01*
X214618Y284132D01*
X214415Y283543D01*
X214198Y282959D01*
X213967Y282380D01*
X213721Y281807D01*
X213461Y281240D01*
X213188Y280680D01*
X212901Y280127D01*
X212600Y279580D01*
X212286Y279042D01*
X211959Y278511D01*
X211619Y277989D01*
X211267Y277474D01*
X210901Y276969D01*
X210524Y276473D01*
X210134Y275986D01*
X209733Y275509D01*
X209320Y275042D01*
X208896Y274586D01*
X208461Y274139D01*
X208014Y273704D01*
X207558Y273280D01*
X207091Y272867D01*
X206614Y272466D01*
X206127Y272076D01*
X205631Y271699D01*
X205126Y271333D01*
X204611Y270981D01*
X204089Y270641D01*
X203558Y270314D01*
X203020Y270000D01*
X202473Y269699D01*
X201920Y269412D01*
X201360Y269139D01*
X200793Y268879D01*
X200220Y268633D01*
X199641Y268402D01*
X199057Y268185D01*
X198468Y267982D01*
X197873Y267794D01*
X197275Y267620D01*
X196672Y267461D01*
X196065Y267317D01*
X195455Y267188D01*
X194842Y267074D01*
X194227Y266975D01*
X193609Y266891D01*
X192990Y266822D01*
X192369Y266769D01*
X191746Y266731D01*
X191123Y266708D01*
X190500Y266700D01*
X189877Y266708D01*
X189254Y266731D01*
X188631Y266769D01*
X188010Y266822D01*
X187391Y266891D01*
X186773Y266975D01*
X186158Y267074D01*
X185545Y267188D01*
X184935Y267317D01*
X184328Y267461D01*
X183725Y267620D01*
X183127Y267794D01*
X182532Y267982D01*
X181943Y268185D01*
X181359Y268402D01*
X180780Y268633D01*
X180207Y268879D01*
X179640Y269139D01*
X179080Y269412D01*
X178527Y269699D01*
X177980Y270000D01*
X177442Y270314D01*
X176911Y270641D01*
X176389Y270981D01*
X175874Y271333D01*
X175369Y271699D01*
X174873Y272076D01*
X174386Y272466D01*
X173909Y272867D01*
X173442Y273280D01*
X172986Y273704D01*
X172539Y274139D01*
X172104Y274586D01*
X171680Y275042D01*
X171267Y275509D01*
X170866Y275986D01*
X170476Y276473D01*
X170099Y276969D01*
X169733Y277474D01*
X169381Y277989D01*
X169041Y278511D01*
X168714Y279042D01*
X168400Y279580D01*
X168099Y280127D01*
X167812Y280680D01*
X167539Y281240D01*
X167279Y281807D01*
X167033Y282380D01*
X166802Y282959D01*
X166585Y283543D01*
X166382Y284132D01*
X166194Y284727D01*
X166020Y285325D01*
X165861Y285928D01*
X165717Y286535D01*
X165588Y287145D01*
X165474Y287758D01*
X165375Y288373D01*
X165291Y288991D01*
X165222Y289610D01*
X165169Y290231D01*
X165131Y290854D01*
X165108Y291477D01*
X165100Y292100D01*
D14*
X234569Y272567D02*
X245999Y272567D01*
X245999Y277647D01*
X245999Y282473D02*
X245999Y287553D01*
X245999Y282473D02*
X234569Y282473D01*
X234569Y287553D01*
X239649Y286283D02*
X239649Y282473D01*
X234569Y292354D02*
X245999Y292354D01*
X234569Y292354D02*
X234569Y295529D01*
X234571Y295640D01*
X234577Y295750D01*
X234586Y295861D01*
X234600Y295971D01*
X234617Y296080D01*
X234638Y296189D01*
X234663Y296297D01*
X234692Y296404D01*
X234724Y296510D01*
X234760Y296615D01*
X234800Y296718D01*
X234843Y296820D01*
X234890Y296921D01*
X234941Y297020D01*
X234994Y297117D01*
X235051Y297211D01*
X235112Y297304D01*
X235175Y297395D01*
X235242Y297484D01*
X235312Y297570D01*
X235385Y297653D01*
X235460Y297735D01*
X235538Y297813D01*
X235620Y297888D01*
X235703Y297961D01*
X235789Y298031D01*
X235878Y298098D01*
X235969Y298161D01*
X236062Y298222D01*
X236157Y298279D01*
X236253Y298332D01*
X236352Y298383D01*
X236453Y298430D01*
X236555Y298473D01*
X236658Y298513D01*
X236763Y298549D01*
X236869Y298581D01*
X236976Y298610D01*
X237084Y298635D01*
X237193Y298656D01*
X237302Y298673D01*
X237412Y298687D01*
X237523Y298696D01*
X237633Y298702D01*
X237744Y298704D01*
X242824Y298704D01*
X242935Y298702D01*
X243045Y298696D01*
X243156Y298687D01*
X243266Y298673D01*
X243375Y298656D01*
X243484Y298635D01*
X243592Y298610D01*
X243699Y298581D01*
X243805Y298549D01*
X243910Y298513D01*
X244013Y298473D01*
X244115Y298430D01*
X244216Y298383D01*
X244315Y298332D01*
X244412Y298279D01*
X244506Y298222D01*
X244599Y298161D01*
X244690Y298098D01*
X244779Y298031D01*
X244865Y297961D01*
X244948Y297888D01*
X245030Y297813D01*
X245108Y297735D01*
X245183Y297653D01*
X245256Y297570D01*
X245326Y297484D01*
X245393Y297395D01*
X245456Y297304D01*
X245517Y297211D01*
X245574Y297117D01*
X245627Y297020D01*
X245678Y296921D01*
X245725Y296820D01*
X245768Y296718D01*
X245808Y296615D01*
X245844Y296510D01*
X245876Y296404D01*
X245905Y296297D01*
X245930Y296189D01*
X245951Y296080D01*
X245968Y295971D01*
X245982Y295861D01*
X245991Y295750D01*
X245997Y295640D01*
X245999Y295529D01*
X245999Y292354D01*
X234569Y307658D02*
X234571Y307762D01*
X234577Y307867D01*
X234586Y307971D01*
X234599Y308074D01*
X234617Y308177D01*
X234637Y308279D01*
X234662Y308381D01*
X234690Y308481D01*
X234722Y308581D01*
X234758Y308679D01*
X234797Y308776D01*
X234839Y308871D01*
X234885Y308965D01*
X234935Y309057D01*
X234987Y309147D01*
X235043Y309235D01*
X235103Y309321D01*
X235165Y309405D01*
X235230Y309486D01*
X235298Y309565D01*
X235370Y309642D01*
X235443Y309715D01*
X235520Y309787D01*
X235599Y309855D01*
X235680Y309920D01*
X235764Y309982D01*
X235850Y310042D01*
X235938Y310098D01*
X236028Y310150D01*
X236120Y310200D01*
X236214Y310246D01*
X236309Y310288D01*
X236406Y310327D01*
X236504Y310363D01*
X236604Y310395D01*
X236704Y310423D01*
X236806Y310448D01*
X236908Y310468D01*
X237011Y310486D01*
X237114Y310499D01*
X237218Y310508D01*
X237323Y310514D01*
X237427Y310516D01*
X234569Y307658D02*
X234571Y307540D01*
X234577Y307421D01*
X234586Y307303D01*
X234599Y307186D01*
X234617Y307069D01*
X234637Y306952D01*
X234662Y306836D01*
X234690Y306721D01*
X234723Y306608D01*
X234758Y306495D01*
X234798Y306383D01*
X234840Y306273D01*
X234887Y306164D01*
X234937Y306056D01*
X234990Y305951D01*
X235047Y305847D01*
X235107Y305745D01*
X235170Y305645D01*
X235237Y305547D01*
X235306Y305451D01*
X235379Y305358D01*
X235455Y305267D01*
X235533Y305178D01*
X235615Y305092D01*
X235699Y305009D01*
X235785Y304928D01*
X235875Y304851D01*
X235966Y304776D01*
X236060Y304704D01*
X236157Y304635D01*
X236255Y304570D01*
X236356Y304507D01*
X236459Y304448D01*
X236563Y304392D01*
X236669Y304340D01*
X236777Y304291D01*
X236886Y304246D01*
X236997Y304204D01*
X237109Y304166D01*
X239649Y309563D02*
X239574Y309639D01*
X239495Y309714D01*
X239414Y309785D01*
X239330Y309854D01*
X239244Y309919D01*
X239156Y309981D01*
X239066Y310041D01*
X238974Y310097D01*
X238879Y310150D01*
X238783Y310199D01*
X238685Y310245D01*
X238586Y310288D01*
X238485Y310327D01*
X238383Y310362D01*
X238280Y310394D01*
X238176Y310422D01*
X238071Y310447D01*
X237964Y310468D01*
X237858Y310485D01*
X237751Y310498D01*
X237643Y310507D01*
X237535Y310513D01*
X237427Y310515D01*
X239649Y309563D02*
X245999Y304165D01*
X245999Y310515D01*
D11*
X318195Y120142D02*
X318195Y108458D01*
X318195Y120142D02*
X321440Y120142D01*
X321553Y120140D01*
X321666Y120134D01*
X321779Y120124D01*
X321892Y120110D01*
X322004Y120093D01*
X322115Y120071D01*
X322225Y120046D01*
X322335Y120016D01*
X322443Y119983D01*
X322550Y119946D01*
X322656Y119906D01*
X322760Y119861D01*
X322863Y119813D01*
X322964Y119762D01*
X323063Y119707D01*
X323160Y119649D01*
X323255Y119587D01*
X323348Y119522D01*
X323438Y119454D01*
X323526Y119383D01*
X323612Y119308D01*
X323695Y119231D01*
X323775Y119151D01*
X323852Y119068D01*
X323927Y118982D01*
X323998Y118894D01*
X324066Y118804D01*
X324131Y118711D01*
X324193Y118616D01*
X324251Y118519D01*
X324306Y118420D01*
X324357Y118319D01*
X324405Y118216D01*
X324450Y118112D01*
X324490Y118006D01*
X324527Y117899D01*
X324560Y117791D01*
X324590Y117681D01*
X324615Y117571D01*
X324637Y117460D01*
X324654Y117348D01*
X324668Y117235D01*
X324678Y117122D01*
X324684Y117009D01*
X324686Y116896D01*
X324684Y116783D01*
X324678Y116670D01*
X324668Y116557D01*
X324654Y116444D01*
X324637Y116332D01*
X324615Y116221D01*
X324590Y116111D01*
X324560Y116001D01*
X324527Y115893D01*
X324490Y115786D01*
X324450Y115680D01*
X324405Y115576D01*
X324357Y115473D01*
X324306Y115372D01*
X324251Y115273D01*
X324193Y115176D01*
X324131Y115081D01*
X324066Y114988D01*
X323998Y114898D01*
X323927Y114810D01*
X323852Y114724D01*
X323775Y114641D01*
X323695Y114561D01*
X323612Y114484D01*
X323526Y114409D01*
X323438Y114338D01*
X323348Y114270D01*
X323255Y114205D01*
X323160Y114143D01*
X323063Y114085D01*
X322964Y114030D01*
X322863Y113979D01*
X322760Y113931D01*
X322656Y113886D01*
X322550Y113846D01*
X322443Y113809D01*
X322335Y113776D01*
X322225Y113746D01*
X322115Y113721D01*
X322004Y113699D01*
X321892Y113682D01*
X321779Y113668D01*
X321666Y113658D01*
X321553Y113652D01*
X321440Y113650D01*
X321440Y113651D02*
X318195Y113651D01*
X322089Y113651D02*
X324686Y108458D01*
X329551Y117546D02*
X332796Y120142D01*
X332796Y108458D01*
X329551Y108458D02*
X336042Y108458D01*
X197358Y235458D02*
X197358Y247142D01*
X200604Y247142D01*
X200717Y247140D01*
X200830Y247134D01*
X200943Y247124D01*
X201056Y247110D01*
X201168Y247093D01*
X201279Y247071D01*
X201389Y247046D01*
X201499Y247016D01*
X201607Y246983D01*
X201714Y246946D01*
X201820Y246906D01*
X201924Y246861D01*
X202027Y246813D01*
X202128Y246762D01*
X202227Y246707D01*
X202324Y246649D01*
X202419Y246587D01*
X202512Y246522D01*
X202602Y246454D01*
X202690Y246383D01*
X202776Y246308D01*
X202859Y246231D01*
X202939Y246151D01*
X203016Y246068D01*
X203091Y245982D01*
X203162Y245894D01*
X203230Y245804D01*
X203295Y245711D01*
X203357Y245616D01*
X203415Y245519D01*
X203470Y245420D01*
X203521Y245319D01*
X203569Y245216D01*
X203614Y245112D01*
X203654Y245006D01*
X203691Y244899D01*
X203724Y244791D01*
X203754Y244681D01*
X203779Y244571D01*
X203801Y244460D01*
X203818Y244348D01*
X203832Y244235D01*
X203842Y244122D01*
X203848Y244009D01*
X203850Y243896D01*
X203848Y243783D01*
X203842Y243670D01*
X203832Y243557D01*
X203818Y243444D01*
X203801Y243332D01*
X203779Y243221D01*
X203754Y243111D01*
X203724Y243001D01*
X203691Y242893D01*
X203654Y242786D01*
X203614Y242680D01*
X203569Y242576D01*
X203521Y242473D01*
X203470Y242372D01*
X203415Y242273D01*
X203357Y242176D01*
X203295Y242081D01*
X203230Y241988D01*
X203162Y241898D01*
X203091Y241810D01*
X203016Y241724D01*
X202939Y241641D01*
X202859Y241561D01*
X202776Y241484D01*
X202690Y241409D01*
X202602Y241338D01*
X202512Y241270D01*
X202419Y241205D01*
X202324Y241143D01*
X202227Y241085D01*
X202128Y241030D01*
X202027Y240979D01*
X201924Y240931D01*
X201820Y240886D01*
X201714Y240846D01*
X201607Y240809D01*
X201499Y240776D01*
X201389Y240746D01*
X201279Y240721D01*
X201168Y240699D01*
X201056Y240682D01*
X200943Y240668D01*
X200830Y240658D01*
X200717Y240652D01*
X200604Y240650D01*
X200604Y240651D02*
X197358Y240651D01*
X201253Y240651D02*
X203849Y235458D01*
X208714Y238054D02*
X211311Y247142D01*
X208714Y238054D02*
X215205Y238054D01*
X213258Y240651D02*
X213258Y235458D01*
M02*
